<svg width="278" height="290" viewBox="0 0 278 290" fill="none" xmlns="http://www.w3.org/2000/svg">
<path d="M69.8048 26.4312L62.1868 33.0932L53.7124 45.6903V55.2602L60.1255 64.9894L46.8113 64.2923L40.3086 65.1188L36.4249 68.4548C36.4249 68.4548 31.8939 80.2055 30.7786 81.5698C29.6814 82.705 28.4548 83.7077 27.124 84.5572L23.1407 87.6742L22.1449 91.5977L23.1407 98.5685L24.3257 116.902L26.1779 122.876L43.1169 144.785L36.5345 146.079L22.1349 141.289L12.1767 135.593L5.76361 135.922L2.5969 138.63L0.894043 146.079V154.125L10.8523 180.425L16.3193 192.584L22.1349 200.789L36.4648 208.019L48.8827 213.436L56.6202 215.637L64.6863 216.812L74.3458 216.304L78.6378 215.309L78.9963 209.632L83.2883 204.215L102.986 205.868L111.012 204.046L117.385 200.162L121.07 196.019L125.521 189.158L129.853 187.286L144.89 184.209L147.668 180.226L146.374 169.909L166.688 161.743L176.378 155.38V161.564L178.479 167.688L188.606 176.242L191.753 170.915L199.839 164.542L204.908 157.67L208.075 145.97L217.963 131.271L220.124 123.305L217.017 118.644L210.544 116.344L220.124 115.746L226.278 111.474L231.257 95.9893L232.781 84.607L231.676 76.9591L226.497 56.4054L219.686 45.7003L215.025 43.2805H208.553L202.677 48.1102L189.433 72.3086L180.002 81.8088L180.202 73.5733L185.878 57.5904L194.412 45.9891L198.096 35.1745L195.557 26.4312L192.669 20.9641L185.908 15.5867L180.231 9.84079L168.72 4.7422L158.891 1.12736L155.904 0.758911L152.348 1.12736L155.904 7.38111L157.895 14.4913L158.891 26.4411L162.745 35.055L155.933 30.3248L148.305 25.525L143.725 17.1999L134.354 11.1254L124.914 9.87067L116.419 11.0756L103.792 15.8755L91.6432 14.5012L86.0268 15.7062L76.6063 22.8462L69.8048 26.4312Z" fill="white"/>
<path d="M69.2769 26.8594L61.6589 33.5215L53.1944 46.1086V55.6785L59.6175 65.4176L46.2934 64.7106L39.7708 65.5271L35.8771 68.8631C35.8771 68.8631 31.3461 80.6238 30.2407 81.9881C29.1386 83.122 27.9089 84.1245 26.5761 84.9755L22.5928 88.0924L21.597 92.0259L22.5928 98.9967L23.7978 117.28L25.65 123.345L42.579 145.173L35.9966 146.497L21.6468 141.707L11.6886 136.011L5.26556 136.34L2.09885 139.059L0.395996 146.497V154.554L10.3542 180.843L15.7914 192.962L21.6468 201.208L35.9468 208.447L48.3547 213.865L56.0923 216.055L64.1584 217.24L73.8179 216.723L78.1099 215.727L78.4684 210.041L82.7603 204.633L102.468 206.276L110.434 204.454L116.867 200.551L120.542 196.398L124.993 189.596L129.325 187.724L144.362 184.617L147.14 180.634L145.846 170.317L166.16 162.162L175.85 155.788V161.982L177.991 168.037L188.118 176.651L191.255 171.323L199.391 164.92L204.46 158.049L207.626 146.338L217.515 131.64L219.676 123.673L216.519 119.043L210.046 116.742L219.626 116.145L225.74 111.922L230.719 96.4175L232.253 85.0353L231.148 77.3874L225.979 56.8436L219.158 46.1286L214.497 43.7187H208.035L202.149 48.5484L188.915 72.7468L179.474 82.2271L179.674 73.9916L185.35 58.0585L193.854 46.4671L197.549 35.6525L194.999 26.9092L192.111 21.4322L185.35 16.0647L179.674 10.3188L168.162 5.22022L158.333 1.59543L155.346 1.23694L151.801 1.59543L155.346 7.84919L157.337 14.9693L158.333 26.9192L162.187 35.533L155.376 30.7929L147.748 26.003L143.167 17.6779L133.796 11.5935L124.366 10.3487L115.861 11.5536L103.224 16.3236L91.1252 14.9295L85.4989 16.1344L76.0784 23.2944L69.2769 26.8594Z" fill="white"/>
<path d="M178.339 82.6253C188.556 78.2138 193.028 65.2482 198.256 56.3057C201.353 50.2213 203.723 42.7327 212.964 43.3003C222.922 43.5094 217.943 47.8413 220.612 56.3157C224.735 71.1534 236.197 77.7159 231.825 93.4001C228.18 110.478 227.413 117.489 210.614 116.304C231.616 120.596 212.227 134.846 208.144 145.91C204.39 155.868 207.945 155.868 199.909 164.482C195.378 169.521 190.399 168.535 189.463 177.059C182.323 168.375 176.129 171.891 176.417 155.38" stroke="#D8C501" stroke-width="0.697075" stroke-miterlimit="10"/>
<path d="M146.374 169.919C147.997 183.373 148.734 184.787 135.28 186.41C120.044 188.063 126.487 191.867 117.355 200.162C104.091 212.431 75.5509 202.223 62.665 194.576C55.1565 190.433 46.7318 184.109 43.9336 175.655C37.3213 155.808 41.9419 161.036 51.8404 155.918C65.6723 149.863 76.6762 151.198 86.5945 149.435" stroke="#D8C501" stroke-width="0.697075" stroke-miterlimit="10"/>
<path d="M75.6006 151.964C55.6842 151.556 51.6312 160.06 27.5423 125.256C22.135 117.429 24.8237 109.682 23.9573 99.4149C24.266 96.5668 21.3682 92.713 22.3839 89.4567C24.0768 84.1091 28.3589 85.4734 30.7787 81.4901C36.3055 71.5518 34.0848 63.7744 46.8413 64.2923C51.8204 65.2881 58.6916 63.1172 63.362 66.9411" stroke="#D8C501" stroke-width="0.697075" stroke-miterlimit="10"/>
<path d="M66.2895 68.4448C48.4444 60.8268 45.5067 34.8159 85.2101 22.9059C92.0115 20.9143 92.6787 26.7099 98.0064 26.6303C105.804 26.1622 102.527 18.3749 107.088 15.1186C114.059 9.69136 140.946 3.16874 148.246 25.515" stroke="#D8C501" stroke-width="0.697075" stroke-miterlimit="10"/>
<path d="M163.292 36.2399C157.158 29.5978 159.449 15.1186 156.322 8.35696C153.195 1.59533 152.279 -1.1631 162.974 2.22269C169.028 3.54714 172.683 10.5876 177.353 14.4215C189.204 23.4636 196.662 24.061 193.725 40.7809C191.424 51.7947 176.646 71.9202 179.992 81.8087" stroke="#D8C501" stroke-width="0.697075" stroke-miterlimit="10"/>
<path d="M146.035 170.984C132.86 167.997 130.52 177.258 119.546 178.493C112.814 179.3 94.2423 171.074 90.2391 165.099C76.437 143.669 98.9525 135.493 123.27 134.756C124.734 137.565 130.241 134.756 136.216 134.049C147.17 125.814 145.368 124.201 157.258 124.49C169.437 124.788 182.9 113.585 194.412 129.847C187.441 140.592 184.762 149.156 173.898 157.481C164.069 164.372 156.63 165.547 146.413 169.959" stroke="#D8C501" stroke-width="0.697075" stroke-miterlimit="10"/>
<path d="M159.13 122.179C184.335 100.152 184.026 58.2874 160.983 34.547C153.414 26.8593 122.633 8.87476 113.641 24.2702C109.13 31.0816 120.612 42.9717 124.595 45.3915C128.897 48.5184 126.059 48.2097 133.179 49.8727C138.158 50.8685 141.345 50.1017 146.294 49.325C156.91 47.3334 155.426 42.7924 166.211 49.7233C172.295 52.8303 174.307 58.626 176.896 65.3278" stroke="#D8C501" stroke-width="0.697075" stroke-miterlimit="10"/>
<path d="M130.749 49.2454C156.093 56.0767 162.964 71.0339 164.607 84.4875" stroke="#D8C501" stroke-width="0.697075" stroke-miterlimit="10"/>
<path d="M94.7503 138.63C68.869 124.3 69.9345 94.9934 76.3575 89.1878C79.2255 86.6584 79.9624 90.6118 83.5374 91.4682C85.8079 92.006 88.1779 89.9048 90.6973 87.4849C94.2624 84.0693 93.5553 80.2652 96.4134 77.7358C100.227 74.37 98.5842 75.2164 102.109 71.2929C105.913 67.2399 109.787 67.3096 114.448 65.5868C119.427 63.7147 122.235 59.8111 127.473 59.1737C133.677 58.387 146.573 62.4699 150.377 67.7975C152.767 71.0738 156.262 73.7725 157.288 77.7558C158.463 82.0179 159.907 85.0352 160.275 89.4467" stroke="#D8C501" stroke-width="0.697075" stroke-miterlimit="10"/>
<path d="M87.4111 67.1104C87.4908 63.2466 89.1239 61.7031 91.9919 59.8609C92.8184 59.4426 94.9794 57.6103 95.6864 57.6003C98.0465 58.1182 97.3893 60.1994 98.7734 60.8666C102.249 62.1911 102.916 60.8069 103.663 64.591C104.031 66.4333 103.145 67.7776 103.454 69.7095" stroke="#D8C501" stroke-width="0.697075" stroke-miterlimit="10"/>
<path d="M93.7245 73.9119C92.888 72.9161 93.7245 70.4564 95.5966 69.4606C97.419 71.6414 94.81 72.6472 93.7345 74.599C93.1768 74.1907 93.4158 73.6032 92.9976 73.5136" stroke="#D8C501" stroke-width="0.697075" stroke-miterlimit="10"/>
<path d="M94.2129 69.4804C94.3025 66.3037 96.8219 67.1104 97.8775 65.1187C98.8136 62.898 95.8859 61.9719 98.3655 60.6973" stroke="#D8C501" stroke-width="0.697075" stroke-miterlimit="10"/>
<path d="M148.146 66.1743C144.92 62.6391 141.773 55.9174 137.58 52.5316C130.869 46.9749 127.174 49.2354 120.114 47.6919C113.053 46.1484 108.473 44.7044 101.452 46.5965C97.1999 47.7616 89.2334 50.51 88.7554 55.6286C95.1187 56.4949 99.0422 51.3266 103.035 59.6915C104.171 61.8823 102.707 65.0789 106.023 66.8216C107.417 67.4888 108.951 66.8216 111.131 66.6025" stroke="#D8C501" stroke-width="0.697075" stroke-miterlimit="10"/>
<path d="M59.5481 77.7458C59.2195 74.4396 61.9481 72.3285 63.8501 69.9485C67.2359 65.7561 68.9586 60.9861 73.4597 57.6501C78.5086 53.9855 89.851 46.3575 96.513 48.4686" stroke="#D8C501" stroke-width="0.697075" stroke-miterlimit="10"/>
<path d="M88.4766 55.768C86.0594 55.7491 83.6785 56.3563 81.5656 57.5306C79.4146 58.9048 74.9633 65.9154 76.2181 66.3038" stroke="#D8C501" stroke-width="0.697075" stroke-miterlimit="10"/>
<path d="M86.7041 79.6478C88.397 76.6006 92.4102 75.555 93.7346 74.599C94.2524 74.0812 95.9553 74.848 96.7221 74.4198C97.4391 73.7824 98.3851 69.8987 99.4108 69.371C100.944 68.3154 102.289 67.8772 102.936 70.1477" stroke="#D8C501" stroke-width="0.697075" stroke-miterlimit="10"/>
<path d="M94.7603 69.2016C95.0903 69.2523 95.4261 69.2523 95.7561 69.2016C97.0606 69.0423 97.2697 69.112 98.5942 69.9883" stroke="#D8C501" stroke-width="0.697075" stroke-miterlimit="10"/>
<path d="M89.8508 87.9529C84.0253 86.2799 92.1711 77.3573 82.183 80.7132C78.6279 82.0476 72.3941 87.0765 74.9135 91.488" stroke="#D8C501" stroke-width="0.697075" stroke-miterlimit="10"/>
<path d="M78.3693 80.4942C77.6723 80.4942 78.5187 81.49 78.0905 80.6435C76.0989 77.4967 80.6697 77.5665 81.6257 76.72C84.6131 74.4595 88.9848 70.8048 92.6295 74.4794" stroke="#D8C501" stroke-width="0.697075" stroke-miterlimit="10"/>
<path d="M87.252 65.4474C85.395 65.9269 83.7555 67.0223 82.6016 68.5543" stroke="#D8C501" stroke-width="0.697075" stroke-miterlimit="10"/>
<path d="M84.6129 73.7724C81.2968 73.4139 86.6544 62.9777 91.2949 68.5643C89.6617 70.1078 89.7016 72.1791 91.6434 73.2546" stroke="#D8C501" stroke-width="0.697075" stroke-miterlimit="10"/>
<path d="M158.851 1.12732C162.536 1.52565 166.708 4.3737 170.243 5.2301C175.385 6.88253 180.051 9.75217 183.846 13.595C186.834 17.0704 192.052 19.7492 194.392 22.7765C197.529 27.3174 193.904 30.743 194.282 35.1744" stroke="#D8C501" stroke-width="0.697075" stroke-miterlimit="10"/>
<path d="M195.518 26.4312C197.738 31.4103 197.509 38.5005 195.328 43.8879C193.267 49.584 180.242 66.9909 180.192 73.5733" stroke="#D8C501" stroke-width="0.697075" stroke-miterlimit="10"/>
<path d="M232.253 78.6918C227.961 68.1959 228.927 51.486 217.953 44.4655" stroke="#D8C501" stroke-width="0.697075" stroke-miterlimit="10"/>
<path d="M208.533 116.901C203.324 121.343 192.131 125.426 185.868 121.154" stroke="#D8C501" stroke-width="0.697075" stroke-miterlimit="10"/>
<path d="M121.07 193.52C109.478 201.277 92.7485 203.598 80.47 196.667C70.2728 190.393 39.6414 183.721 41.6828 167.639" stroke="#D8C501" stroke-width="0.697075" stroke-miterlimit="10"/>
<path d="M53.9315 55.5987C52.0693 38.6698 62.5652 31.8285 73.9475 24.7283C79.1755 21.4321 83.2185 15.8655 88.9445 14.6306C95.3576 13.6348 101.402 17.4588 107.108 15.0788" stroke="#D8C501" stroke-width="0.697075" stroke-miterlimit="10"/>
<path d="M149.391 123.275C151.173 120.038 154.37 116.085 153.374 111.962C152.149 107.391 147.09 106.555 147.021 102.004C146.204 93.7585 150.865 98.2696 154.987 96.1485C159.548 93.7784 159.966 92.3942 162.894 87.9927C164.448 84.2883 171.279 65.0888 175.173 64.8399C179.066 64.5909 178.897 83.153 178.041 87.0666" stroke="#D8C501" stroke-width="0.697075" stroke-miterlimit="10"/>
<path d="M74.6648 90.6914C73.2507 87.9529 70.8209 86.6185 73.8482 82.4361C72.7827 80.3847 71.6972 76.6105 70.3031 75.6047C70.6317 74.5591 72.6831 73.5035 72.6831 73.5035C51.6912 74.8479 53.4836 101.685 56.8296 118.176C58.7416 130.196 73.659 137.206 73.659 137.206C80.57 138.819 91.8925 137.515 98.425 136.728" stroke="#D8C501" stroke-width="0.697075" stroke-miterlimit="10"/>
<path d="M111.012 114.173C115.384 129.26 132.044 137.963 144.243 124.689" stroke="#D8C501" stroke-width="0.697075" stroke-miterlimit="10"/>
<path d="M135.888 118.614C141.514 126.103 149.112 127.368 155.894 120.377" stroke="#D8C501" stroke-width="0.697075" stroke-miterlimit="10"/>
<path d="M177.662 102.133C187.332 104.045 202.916 93.9477 210.873 101.317" stroke="#D8C501" stroke-width="0.697075" stroke-miterlimit="10"/>
<path d="M177.603 98.6879C185.151 96.5071 192.649 90.8807 198.057 84.597" stroke="#D8C501" stroke-width="0.697075" stroke-miterlimit="10"/>
<path d="M116.658 156.525C122.314 165.736 131.357 171.462 143.047 170.586" stroke="#D8C501" stroke-width="0.697075" stroke-miterlimit="10"/>
<path d="M157.447 143.151C158.941 151.058 156.362 162.799 149.202 167.39" stroke="#D8C501" stroke-width="0.697075" stroke-miterlimit="10"/>
<path d="M142.49 156.127C145.656 160.558 145.398 166.762 143.386 169.55" stroke="#D8C501" stroke-width="0.697075" stroke-miterlimit="10"/>
<path d="M165.095 147.862C160.714 154.464 156.362 162.799 149.162 167.39" stroke="#D8C501" stroke-width="0.697075" stroke-miterlimit="10"/>
<path d="M66.4888 141.797C70.7135 144.873 75.8805 146.375 81.0959 146.044C86.3113 145.713 91.2469 143.57 95.0489 139.985" stroke="#D8C501" stroke-width="0.697075" stroke-miterlimit="10"/>
<path d="M69.8047 178.244C73.1407 171.273 79.2152 162.948 88.1776 163.496" stroke="#D8C501" stroke-width="0.697075" stroke-miterlimit="10"/>
<path d="M189.433 141.289C189.164 145.77 191.644 150.56 195.826 153.587" stroke="#D8C501" stroke-width="0.697075" stroke-miterlimit="10"/>
<path d="M43.1167 144.785C32.8897 151.755 11.8977 130.226 4.07059 136.888C-4.75238 144.944 7.36676 171.672 12.6048 176.711C17.4943 181.112 20.9398 181.062 24.8434 188.601C28.04 194.745 30.5495 201.258 35.439 205.659C45.5665 215.149 65.9509 219.312 78.6377 215.328C77.1937 210.877 80.231 206.695 83.2882 204.235" stroke="#D8C501" stroke-width="0.697075" stroke-miterlimit="10"/>
<path d="M1.22273 142.335C-3.11905 150.67 6.26159 169.57 10.1851 178.812C13.4514 186.689 16.3393 195.571 23.6586 201.337C30.9779 207.103 39.2631 207.989 46.2239 213.048" stroke="#D8C501" stroke-width="0.697075" stroke-miterlimit="10"/>
<path d="M182.85 147.423L175.491 149.276L165.433 154.802L162.167 161.235L163.163 169.969L154.469 164.92L149.809 163.217L146.055 164.123C146.055 164.123 138.974 170.447 137.76 170.985C136.625 171.374 135.448 171.632 134.254 171.751L130.54 172.488L128.548 174.779L126.835 179.758L121.319 192.405L120.472 197.105L124.326 217.569L119.456 216.195L111.49 208.049L106.78 200.809L102.368 198.818L99.2113 199.555L95.5168 203.966L92.7484 209.363L90.3684 230.425L89.8506 240.383L90.936 247.932L98.0362 257.701L104.499 265.607L108.931 269.74L113.91 273.305L120.562 276.293L123.788 277.099L125.979 273.415L130.719 271.264L143.366 279.141L149.341 280.684L154.957 280.266L158.851 278.752L164.189 275.685L167.744 275.924L178.887 279.031L182.113 277.318L184.792 269.959L201.233 271.463L209.917 270.527L207.776 274.669L207.128 279.469L210.982 288.701L214.966 286.201L222.584 284.717L228.349 281.849L234.494 275.088L246.194 268.675L250.377 264.084L249.899 259.891L246.344 256.127L252.976 259.015L258.533 258.268L267.196 249.585L272.175 242.474L274.068 236.968L277.623 221.463L276.736 211.933L274.446 208.706L270.094 206.436L264.488 207.651L247.29 219.332L237.71 222.458L240.698 217.001L250.008 208.238L259.698 203.389L265.892 197.414L267.196 190.672L267.107 186.001L264.418 180.027L262.586 174.221L256.611 166.842L251.263 161.036L249.411 159.772L246.902 158.776L247.131 164.193L246.005 169.68L242.57 178.035L242.211 185.155L239.224 179.638L235.758 173.793L235.579 166.693L231.387 159.393L225.481 155.3L219.367 153.189L209.25 152.024L201.602 146.935L197.399 145.78L188.626 147.324L182.85 147.423Z" fill="white"/>
<path d="M182.353 147.533L174.954 149.375L164.936 154.912L161.669 161.335L162.665 170.068L153.972 165.02L149.311 163.317L145.557 164.223C145.557 164.223 138.477 170.556 137.262 171.084C136.128 171.478 134.951 171.735 133.757 171.851L130.042 172.598L128.051 174.878L126.338 179.857L120.721 192.584L119.875 197.284L123.729 217.748L118.859 216.374L110.893 208.228L106.182 200.989L101.771 198.997L98.7037 199.734L95.0092 204.135L92.2508 209.513L89.8508 230.545L89.333 240.503L90.4184 248.041L97.5187 257.81L103.982 265.717L108.413 269.85L113.392 273.415L120.044 276.402L123.271 277.219L125.461 273.524L130.201 271.373L142.848 279.26L148.823 280.794L154.44 280.385L158.333 278.862L163.671 275.795L167.226 276.034L178.479 279.22L181.705 277.507L184.384 270.148L200.825 271.662L209.509 270.666L207.358 274.819L206.71 279.619L210.564 288.84L214.548 286.35L222.166 284.857L227.921 281.989L234.076 275.227L245.757 268.774L249.939 264.183L249.461 259.991L245.906 256.227L252.538 259.115L258.095 258.378L266.758 249.694L271.738 242.584L273.63 237.067L277.225 221.512L276.338 211.982L274.048 208.756L269.606 206.525L264 207.74L246.802 219.471L237.232 222.558L240.22 217.111L249.531 208.338L259.14 203.538L265.334 197.563L266.639 190.821L266.579 186.161L263.89 180.236L262.128 174.37L256.153 166.991L250.805 161.176L248.953 159.921L246.444 158.925L246.673 164.342L245.537 169.79L242.102 178.144L241.723 185.245L238.786 179.728L235.32 173.892L235.111 166.732L230.919 159.433L225.014 155.34L218.899 153.229L208.752 152.124L201.104 147.035L196.922 145.92L188.148 147.453L182.353 147.533Z" fill="white"/>
<path d="M236.316 222.459C244.681 223.016 252.15 215.856 258.702 211.644C262.875 208.656 267.037 204.424 273.032 207.979C279.635 211.534 274.855 212.759 273.689 219.342C271.359 230.714 276.777 239.049 268.451 248.061C260.136 258.268 257.219 262.71 246.344 256.147C258.961 266.245 241.056 269.093 234.514 275.147C228.539 280.555 230.959 281.74 222.564 284.777C217.784 286.589 214.787 284.219 211.232 289.617C209.429 281.341 204.062 281.561 209.937 270.587" stroke="#D8C501" stroke-width="0.697075" stroke-miterlimit="10"/>
<path d="M184.852 269.999C181.317 279.579 181.327 280.774 171.737 277.239C160.962 273.106 163.97 277.876 155.017 280.306C141.883 283.96 126.248 267.3 120.223 257.77C116.609 252.403 113.133 245.273 114.149 238.661C116.539 223.076 117.873 228.184 126.238 228.145C137.6 228.842 144.511 233.522 151.781 235.753" stroke="#D8C501" stroke-width="0.697075" stroke-miterlimit="10"/>
<path d="M143.566 233.612C130.371 226.502 124.705 230.803 120.522 199.166C119.527 192.056 124.048 187.794 127.005 180.604C128.19 178.802 127.573 175.217 129.355 173.414C132.343 170.427 134.733 172.787 137.72 170.984C144.87 166.165 146.035 160.18 154.43 164.92C157.418 167.29 162.785 168.206 164.597 172.379" stroke="#D8C501" stroke-width="0.697075" stroke-miterlimit="10"/>
<path d="M166.041 174.39C156.691 163.147 163.671 144.685 194.412 150.361C199.67 151.357 198.107 155.49 201.712 157.262C207.099 159.632 207.577 153.279 211.759 152.661C218.332 151.437 238.577 156.286 235.789 173.793" stroke="#D8C501" stroke-width="0.697075" stroke-miterlimit="10"/>
<path d="M242.212 186.161C240.339 179.638 246.862 170.676 247.101 165.039C247.34 159.403 247.659 157.262 253.673 163.217C257.278 166.205 257.298 172.18 259.121 176.342C263.96 186.479 268.75 189.447 261.033 199.654C255.685 206.257 238.866 214.681 237.71 222.459" stroke="#D8C501" stroke-width="0.697075" stroke-miterlimit="10"/>
<path d="M184.264 270.597C176.457 264.064 171.697 269.461 163.91 266.514C159.12 264.741 149.49 252.831 148.863 247.454C146.971 228.334 164.886 230.594 181.456 238.491C181.456 240.881 186.107 240.891 190.419 242.475C200.606 240.722 199.939 239.009 207.806 243.291C215.842 247.663 228.718 244.785 230.839 259.603C222.494 264.432 217.734 269.242 207.587 271.084C198.624 272.329 193.227 270.557 184.852 269.999" stroke="#D8C501" stroke-width="0.697075" stroke-miterlimit="10"/>
<path d="M209.827 242.375C234.314 236.271 248.515 208.099 241.225 184.219C238.796 176.452 224.296 153.807 213.004 161.036C207.636 164.024 211.281 175.974 213.093 178.961C214.906 182.536 213.093 181.351 217.306 184.936C220.293 187.316 222.703 187.924 226.268 189.079C234.055 191.429 234.633 187.834 239.463 196.189C242.45 200.351 241.823 204.942 241.255 210.32" stroke="#D8C501" stroke-width="0.697075" stroke-miterlimit="10"/>
<path d="M215.882 183.691C230.52 196.985 229.993 209.373 226.447 218.963" stroke="#D8C501" stroke-width="0.697075" stroke-miterlimit="10"/>
<path d="M160.992 231.252C148.564 212.739 159.389 193.41 165.662 191.767C168.451 191.06 167.594 193.968 169.695 195.751C171.03 196.896 173.34 196.298 175.86 195.551C179.435 194.486 180.261 191.688 183.049 190.971C186.764 189.975 185.37 190.035 189.084 188.62C193.067 187.196 195.607 188.62 199.331 189.029C203.314 189.477 206.531 187.834 210.285 189.208C214.717 190.811 221.966 197.991 222.683 202.871C223.171 205.858 224.575 208.915 223.898 211.943C223.211 215.199 223.141 217.728 221.847 220.795" stroke="#D8C501" stroke-width="0.697075" stroke-miterlimit="10"/>
<path d="M180.669 180.764C182.054 178.194 183.657 177.716 186.236 177.477C186.933 177.477 189.024 176.989 189.492 177.228C190.897 178.384 189.741 179.549 190.438 180.475C192.311 182.556 193.237 181.859 192.43 184.657C192.042 186.012 190.986 186.649 190.528 188.013" stroke="#D8C501" stroke-width="0.697075" stroke-miterlimit="10"/>
<path d="M182.561 187.495C182.332 186.569 183.716 185.165 185.35 185.155C185.818 187.246 183.726 187.027 182.362 187.963C182.133 187.495 182.482 187.206 182.243 186.967" stroke="#D8C501" stroke-width="0.697075" stroke-miterlimit="10"/>
<path d="M184.454 184.697C185.609 182.596 187.013 183.98 188.437 183.044C189.831 181.879 188.198 180.256 190.289 180.246" stroke="#D8C501" stroke-width="0.697075" stroke-miterlimit="10"/>
<path d="M221.727 201.028C220.731 197.543 220.98 191.956 219.337 188.242C216.738 182.207 213.482 182.456 209.279 178.981C205.077 175.505 202.498 173.006 197.14 171.831C193.884 171.154 187.6 170.258 185.519 173.524C189.502 176.292 193.904 174.171 193.705 181.162C193.705 183.014 191.623 184.657 193.267 186.977C193.974 187.903 195.258 187.973 196.762 188.591" stroke="#D8C501" stroke-width="0.697075" stroke-miterlimit="10"/>
<path d="M158.323 178.314C159.239 175.984 161.799 175.506 163.89 174.56C167.604 172.916 170.383 170.337 174.565 169.58C179.216 168.863 189.443 167.649 193.187 171.353" stroke="#D8C501" stroke-width="0.697075" stroke-miterlimit="10"/>
<path d="M185.29 173.524C183.673 172.68 181.865 172.268 180.042 172.329C178.13 172.508 172.733 175.685 173.43 176.372" stroke="#D8C501" stroke-width="0.697075" stroke-miterlimit="10"/>
<path d="M175.879 188.929C178.06 187.465 181.117 188.143 182.332 187.933C182.86 187.754 183.736 188.86 184.433 188.85C185.131 188.67 187.102 186.4 187.969 186.39C189.363 186.211 190.408 186.39 190.07 188.123" stroke="#D8C501" stroke-width="0.697075" stroke-miterlimit="10"/>
<path d="M184.882 184.697C185.095 184.845 185.33 184.96 185.579 185.036C186.515 185.384 186.625 185.494 187.212 186.539" stroke="#D8C501" stroke-width="0.697075" stroke-miterlimit="10"/>
<path d="M175.103 195.571C171.767 192.444 180.311 189.258 172.444 188.083C169.655 187.744 163.73 188.999 163.919 192.833" stroke="#D8C501" stroke-width="0.697075" stroke-miterlimit="10"/>
<path d="M169.994 186.609C169.536 186.38 169.765 187.306 169.765 186.609C169.516 183.821 172.554 185.434 173.48 185.195C176.268 184.717 180.45 183.761 181.635 187.475" stroke="#D8C501" stroke-width="0.697075" stroke-miterlimit="10"/>
<path d="M181.127 179.638C179.718 179.33 178.246 179.502 176.945 180.126" stroke="#D8C501" stroke-width="0.697075" stroke-miterlimit="10"/>
<path d="M176.487 184.269C174.386 182.885 181.575 177.726 182.77 183.074C181.137 183.552 180.45 184.946 181.386 186.34" stroke="#D8C501" stroke-width="0.697075" stroke-miterlimit="10"/>
<path d="M251.273 161.076C253.604 162.61 255.426 165.956 257.507 167.748C260.388 170.623 262.53 174.153 263.751 178.035C264.538 181.391 267.137 185.006 267.675 187.824C268.202 191.947 264.598 193.002 263.323 196.099" stroke="#D8C501" stroke-width="0.697075" stroke-miterlimit="10"/>
<path d="M267.167 190.662C266.928 194.795 264.369 199.445 261.033 202.303C257.697 205.42 242.968 212.61 240.668 217.001" stroke="#D8C501" stroke-width="0.697075" stroke-miterlimit="10"/>
<path d="M273.858 238.392C274.585 229.877 280.979 219.013 276.039 210.509" stroke="#D8C501" stroke-width="0.697075" stroke-miterlimit="10"/>
<path d="M244.79 255.789C239.811 256.974 230.849 255.858 228.13 250.81" stroke="#D8C501" stroke-width="0.697075" stroke-miterlimit="10"/>
<path d="M159.767 277.119C149.321 278.334 137.312 274.132 131.456 265.269C126.776 257.551 108.552 242.554 115.423 232.457" stroke="#D8C501" stroke-width="0.697075" stroke-miterlimit="10"/>
<path d="M162.177 161.534C166.758 149.505 176.119 148.589 186.196 147.732C190.837 147.324 195.468 144.974 199.73 146.119C204.38 147.643 207.119 152.303 211.759 152.661" stroke="#D8C501" stroke-width="0.697075" stroke-miterlimit="10"/>
<path d="M202.916 239.746C205.236 238.193 208.712 236.619 209.469 233.522C210.225 230.037 207.118 227.736 208.642 224.629C210.942 218.814 212.516 223.444 215.991 223.425C219.865 223.425 220.632 222.628 224.107 220.676C226.417 218.734 237.591 208.228 240.299 209.373C243.008 210.519 236.505 222.937 234.573 225.307" stroke="#D8C501" stroke-width="0.697075" stroke-miterlimit="10"/>
<path d="M164.009 192.196C164.009 189.875 162.834 188.133 166.3 186.38C166.3 184.637 166.857 181.729 166.3 180.574C166.877 179.987 168.62 179.977 168.62 179.977C154.051 173.663 146.015 192.285 142.629 204.534C139.771 213.257 147.369 223.086 147.369 223.086C151.442 226.541 159.488 229.559 164.139 231.282" stroke="#D8C501" stroke-width="0.697075" stroke-miterlimit="10"/>
<path d="M180.311 220.467C178.051 232.088 186.236 243.66 198.983 238.949" stroke="#D8C501" stroke-width="0.697075" stroke-miterlimit="10"/>
<path d="M195.467 231.979C196.662 238.949 201.323 242.395 208.283 240.035" stroke="#D8C501" stroke-width="0.697075" stroke-miterlimit="10"/>
<path d="M229.156 235.285C234.982 239.905 248.903 238.481 251.712 246.169" stroke="#D8C501" stroke-width="0.697075" stroke-miterlimit="10"/>
<path d="M230.261 232.965C236.077 234.09 243.038 232.895 248.823 230.545" stroke="#D8C501" stroke-width="0.697075" stroke-miterlimit="10"/>
<path d="M169.516 250.79C170.134 258.916 174.236 265.856 182.382 269.302" stroke="#D8C501" stroke-width="0.697075" stroke-miterlimit="10"/>
<path d="M201.482 255.848C199.77 261.664 194.004 268.655 187.621 269.272" stroke="#D8C501" stroke-width="0.697075" stroke-miterlimit="10"/>
<path d="M186.993 259.404C187.591 263.467 185.29 267.539 183.01 268.714" stroke="#D8C501" stroke-width="0.697075" stroke-miterlimit="10"/>
<path d="M204.998 261.634C199.79 264.562 194.044 268.605 187.621 269.272" stroke="#D8C501" stroke-width="0.697075" stroke-miterlimit="10"/>
<path d="M140.956 223.654C142.738 227.163 145.688 229.942 149.297 231.513C152.907 233.083 156.95 233.346 160.733 232.257" stroke="#D8C501" stroke-width="0.697075" stroke-miterlimit="10"/>
<path d="M130.679 249.246C135.3 245.741 142.251 242.226 148.076 245.671" stroke="#D8C501" stroke-width="0.697075" stroke-miterlimit="10"/>
<path d="M223.59 265.607C222.733 267.215 222.286 269.009 222.286 270.83C222.286 272.652 222.733 274.446 223.59 276.054" stroke="#D8C501" stroke-width="0.697075" stroke-miterlimit="10"/>
<path d="M124.256 217.599C114.975 218.804 108.323 197.125 100.775 198.897C92.0813 201.268 91.0357 223.325 92.8083 228.543C94.5808 233.174 96.9011 234.329 96.9409 240.712C96.9409 245.93 96.4132 251.158 98.1758 255.799C101.711 265.647 113.95 275.446 123.828 277.139C124.386 273.654 127.811 271.901 130.799 271.304" stroke="#D8C501" stroke-width="0.697075" stroke-miterlimit="10"/>
<path d="M97.0205 201.546C91.2348 205.639 91.0456 221.542 90.4879 229.091C89.9402 235.484 88.8149 242.455 91.7426 248.818C94.6703 255.181 99.9183 258.647 102.856 264.432" stroke="#D8C501" stroke-width="0.697075" stroke-miterlimit="10"/>
</svg>
