<svg width="140" height="22" viewBox="0 0 140 22" fill="none" xmlns="http://www.w3.org/2000/svg">
<path d="M26.8424 21.0203C26.2721 21.0275 25.7042 20.9451 25.1595 20.7762C23.9922 20.3958 23.7976 18.8765 23.6935 17.8989L21.8813 1.23342C21.8268 0.717885 21.7451 0.5 21.5554 0.5C21.3657 0.5 21.2567 0.689685 21.1478 0.934808L13.1711 17.9806L4.85785 0.907572C4.72166 0.60895 4.6137 0.5 4.45027 0.5C4.28685 0.5 4.17887 0.744149 4.15261 1.04277L2.19832 18.6858C2.06213 19.7986 2.00376 20.7752 1.11271 20.9386C0.845459 20.9977 0.572169 21.0251 0.298501 21.0203C0.162313 21.0203 0.0270996 21.0748 0.0270996 21.1828C0.0270996 21.3773 0.221652 21.4006 0.48819 21.4006C1.22166 21.4006 2.52419 21.3189 2.76835 21.3189C2.98528 21.3189 4.36953 21.4006 5.3744 21.4006C5.6458 21.4006 5.78199 21.3462 5.78199 21.1565C5.78199 21.0748 5.67303 21.0203 5.51058 21.0203C5.18313 21.0232 4.85652 20.9866 4.53782 20.9114C4.13023 20.8297 3.80435 20.6128 3.80435 19.9387C3.80435 19.4776 3.83159 19.0973 3.85883 18.6625L4.97167 5.87813C5.27031 6.61155 8.39289 13.3164 8.63608 13.8038C8.77226 14.0761 11.1069 18.7714 11.8122 20.1011C12.3277 21.0738 12.4639 21.3501 12.6536 21.3501C12.8987 21.3501 12.9795 21.1059 13.5495 19.9114L20.282 5.63397L21.5846 19.8025C21.639 20.2888 21.6663 20.6984 21.4756 20.7752C21.3394 20.8297 21.2811 20.8569 21.2811 20.9697C21.2811 21.1059 21.4172 21.1866 22.0408 21.2411C23.0447 21.3228 26.1391 21.4036 26.7363 21.4036C27.0622 21.4036 27.1439 21.3491 27.1439 21.1857C27.1439 21.0476 26.9815 21.0203 26.8424 21.0203Z" fill="#505050"/>
<path d="M42.8649 17.7355C42.7287 17.7355 42.6703 17.8444 42.6207 18.1421C42.4038 19.3093 42.1052 19.8793 41.2365 20.1517C40.4372 20.344 39.6154 20.4262 38.7939 20.3959C38.0344 20.4453 37.2722 20.3627 36.5409 20.1517C35.86 19.8793 35.6995 19.2831 35.646 18.1703C35.6188 17.6003 35.646 14.4516 35.646 13.5285V11.1405C35.6423 11.1141 35.6447 11.0872 35.6532 11.0619C35.6617 11.0366 35.6759 11.0136 35.6947 10.9947C35.7136 10.9758 35.7366 10.9616 35.7619 10.9531C35.7872 10.9447 35.8141 10.9422 35.8405 10.946C36.3016 10.946 38.9894 11.0004 39.7219 11.0821C40.6947 11.1911 41.0254 11.5685 41.1334 11.977C41.2093 12.223 41.2461 12.4794 41.2423 12.7367C41.2423 12.9546 41.2696 13.1715 41.4369 13.1715C41.5458 13.1715 41.5993 13.0363 41.6314 12.7649C41.6587 12.3846 41.6587 11.7601 41.7404 10.9168C41.8221 10.0209 41.9573 9.55984 41.9573 9.3974C41.9573 9.23496 41.9028 9.17951 41.8211 9.17951C41.7122 9.17951 41.6266 9.28846 41.4952 9.45091C41.2238 9.77676 40.8707 9.85848 40.1382 9.91295C39.5137 9.96645 36.1752 9.96644 35.8221 9.96644C35.6869 9.96644 35.6596 9.88473 35.6596 9.69505V2.20518C35.6596 2.0155 35.7141 1.9338 35.8221 1.9338C36.1207 1.9338 39.0799 1.96006 39.5419 2.01551C40.7365 2.12348 41.3065 2.39486 41.4962 3.01934C41.5916 3.30819 41.6377 3.61106 41.6324 3.91521C41.6324 4.13213 41.6869 4.2683 41.8493 4.2683C41.9583 4.2683 42.0439 4.07376 42.0663 3.80723C42.1207 3.10105 42.148 2.58551 42.1752 2.17892C42.2241 1.74987 42.2965 1.32384 42.3921 0.902727C42.3921 0.766547 42.3649 0.658569 42.2832 0.658569C42.1763 0.669585 42.0738 0.706666 41.9845 0.766548C41.5782 0.879003 41.1581 0.934009 40.7365 0.929962C40.112 0.957198 34.7053 0.957198 34.5195 0.957198C32.8094 0.875491 32.0769 0.875491 31.4524 0.875491C31.1538 0.875491 31.0176 0.929955 31.0176 1.0924C31.0176 1.20037 31.18 1.22858 31.3707 1.25485C31.6345 1.26534 31.8973 1.29263 32.1577 1.33656C33.0536 1.52623 33.2705 1.96006 33.325 2.88316C33.3794 3.75179 33.3794 4.51245 33.3794 8.74568V13.5227C33.3794 15.9379 33.3532 17.3231 33.325 18.3814C33.2705 20.4173 32.9184 20.7976 32.3522 20.9328C32.1472 20.9787 31.9386 21.006 31.7287 21.0145C31.5662 21.0417 31.43 21.0962 31.43 21.1769C31.43 21.3403 31.5662 21.3948 31.8649 21.3948C32.5711 21.4221 33.2219 21.3131 33.8736 21.3131C34.932 21.3131 36.181 21.3676 37.2666 21.3948C38.325 21.4221 39.2209 21.4765 41.2297 21.4765C42.288 21.4765 42.5059 21.4765 42.6956 20.7703C42.8572 19.8991 42.975 19.0203 43.0487 18.1372C43.0273 17.9524 43.0273 17.7355 42.8649 17.7355Z" fill="#505050"/>
<path d="M55.6295 9.75638L54.8698 9.15913C52.2637 7.12325 51.5624 6.14373 51.5624 4.59906C51.5522 4.16644 51.6331 3.73653 51.7998 3.33721C51.9666 2.93788 52.2154 2.57807 52.5303 2.28115C52.8451 1.98424 53.2188 1.75684 53.6272 1.61372C54.0356 1.4706 54.4696 1.41495 54.9009 1.4504C57.3989 1.4504 58.1314 2.59042 58.2939 2.88904C58.4783 3.32301 58.5973 3.78193 58.647 4.25083C58.6742 4.46774 58.7015 4.60393 58.8639 4.60393C59.0001 4.60393 59.0585 4.40939 59.0585 3.97945C59.0585 2.1313 59.1674 1.23834 59.1674 1.10216C59.1674 0.965984 59.113 0.907624 58.896 0.907624C58.5752 0.896878 58.2566 0.851216 57.9456 0.771445C57.1166 0.579299 56.2674 0.488168 55.4164 0.500052C51.969 0.500052 49.7977 2.48147 49.7977 5.38599C49.7977 7.23414 50.4485 8.91401 53.3269 11.2757L54.5478 12.2806C56.8824 14.2075 57.6694 15.296 57.6694 17.1665C57.6688 17.6637 57.5658 18.1554 57.367 18.6111C57.1682 19.0667 56.8777 19.4766 56.5136 19.8152C56.1495 20.1538 55.7197 20.4139 55.2508 20.5792C54.7819 20.7445 54.284 20.8116 53.788 20.7762C51.969 20.7762 50.1781 20.0165 49.7705 18.0079C49.7079 17.6768 49.6805 17.34 49.6888 17.0031C49.6888 16.7862 49.6625 16.7045 49.4991 16.7045C49.3629 16.7045 49.3046 16.8406 49.2822 17.1393C49.2549 17.5741 49.146 18.6586 49.146 20.0165C49.146 20.75 49.1732 20.8579 49.5526 21.0486C50.6938 21.5663 51.9381 21.8168 53.1908 21.781C54.641 21.8264 56.0706 21.4287 57.289 20.641C57.9991 20.1226 58.5777 19.445 58.9784 18.6625C59.3791 17.88 59.5908 17.0145 59.5964 16.1354C59.5877 13.9634 58.8279 12.2806 55.6295 9.75638Z" fill="#505050"/>
<path d="M72.1314 9.75638L71.3717 9.15913C68.7656 7.12325 68.0643 6.14372 68.0643 4.59906C68.0541 4.16644 68.135 3.73653 68.3017 3.3372C68.4685 2.93788 68.7174 2.57807 69.0322 2.28115C69.347 1.98424 69.7207 1.75684 70.1291 1.61372C70.5376 1.4706 70.9715 1.41495 71.4028 1.45039C73.9009 1.45039 74.6333 2.59042 74.7958 2.88904C74.9804 3.32295 75.0994 3.7819 75.1489 4.25083C75.1762 4.46774 75.2034 4.60393 75.3658 4.60393C75.502 4.60393 75.5555 4.40939 75.5555 3.97945C75.5555 2.1313 75.6645 1.23834 75.6645 1.10216C75.6645 0.965982 75.611 0.907623 75.3931 0.907623C75.0726 0.896799 74.7543 0.851137 74.4437 0.771444C73.6146 0.579307 72.7654 0.488176 71.9145 0.50005C68.468 0.50005 66.2958 2.48147 66.2958 5.38599C66.2958 7.23414 66.9466 8.914 69.824 11.2757L71.0458 12.2806C73.3804 14.2075 74.1674 15.296 74.1674 17.1665C74.1668 17.6637 74.0639 18.1554 73.865 18.6111C73.6662 19.0667 73.3757 19.4766 73.0116 19.8152C72.6476 20.1538 72.2177 20.4139 71.7488 20.5792C71.2799 20.7445 70.782 20.8116 70.2861 20.7762C68.467 20.7762 66.6752 20.0165 66.2685 18.0079C66.206 17.6768 66.1786 17.34 66.1868 17.0031C66.1868 16.7862 66.1596 16.7045 65.9923 16.7045C65.8571 16.7045 65.7977 16.8406 65.7754 17.1393C65.7481 17.5741 65.6392 18.6586 65.6392 20.0165C65.6392 20.75 65.6664 20.8579 66.0468 21.0486C67.188 21.5663 68.4322 21.8168 69.6849 21.781C71.1351 21.8263 72.5647 21.4287 73.7832 20.641C74.4932 20.1226 75.0717 19.4449 75.4724 18.6625C75.8732 17.88 76.0849 17.0145 76.0906 16.1354C76.0935 13.9634 75.3338 12.2806 72.1314 9.75638Z" fill="#505050"/>
<path d="M100.011 21.0203C99.6518 21.0196 99.295 20.9649 98.9524 20.8579C98.3814 20.6954 97.5905 20.2606 96.6178 17.8425C94.9641 13.7162 90.7004 2.50671 90.2948 1.47564C89.9689 0.634246 89.86 0.50293 89.6975 0.50293C89.5351 0.50293 89.4261 0.66537 89.1002 1.56124L82.9378 18.4173C82.4514 19.7743 81.9076 20.8053 80.6576 20.9688C80.4419 20.9993 80.2246 21.0175 80.0068 21.0232C79.7627 21.0232 79.6265 21.0777 79.6265 21.1857C79.6265 21.3491 79.7899 21.4036 80.142 21.4036C81.4183 21.4036 82.9115 21.3219 83.2102 21.3219C83.5088 21.3219 84.5944 21.4036 85.2461 21.4036C85.4903 21.4036 85.7325 21.3491 85.7325 21.1857C85.7325 21.0777 85.6508 21.0232 85.3804 21.0232H85.1353C84.6742 21.0232 84.1625 20.7791 84.1625 20.2363C84.1892 19.6133 84.3177 18.9989 84.5428 18.4173L86.1713 13.6131C86.1864 13.5522 86.2212 13.4979 86.2702 13.4587C86.3193 13.4195 86.3799 13.3976 86.4427 13.3962H92.2793C92.3323 13.3919 92.3852 13.4055 92.4296 13.435C92.4739 13.4645 92.507 13.508 92.5234 13.5587L95.0526 20.2363C95.215 20.6702 95.0526 20.9172 94.8901 20.9688C94.7812 20.996 94.6956 21.0505 94.6956 21.1633C94.6956 21.3258 94.9933 21.3258 95.5098 21.3579C97.3833 21.4123 99.3649 21.4123 99.7715 21.4123C100.07 21.4123 100.314 21.3579 100.314 21.1944C100.309 21.0476 100.173 21.0203 100.011 21.0203ZM91.9222 12.4157H86.7355C86.6537 12.4157 86.6002 12.3612 86.6537 12.2212L89.0429 4.89278C89.1784 4.48553 89.3142 4.48553 89.4504 4.89278L92.0292 12.2212C92.0574 12.335 92.0575 12.4157 91.9222 12.4157Z" fill="#505050"/>
<path d="M122.244 11.2212C121.43 11.2212 119.72 11.3029 119.585 11.3029C119.45 11.3029 117.737 11.2212 116.518 11.2212C116.219 11.2212 116.083 11.2757 116.083 11.4382C116.083 11.5471 116.191 11.6006 116.3 11.6006C116.609 11.5996 116.918 11.627 117.223 11.6823C118.309 11.98 118.445 12.2796 118.445 14.4779V19.0914C118.458 19.2857 118.414 19.4797 118.317 19.6488C118.221 19.8179 118.076 19.9547 117.902 20.0418C116.923 20.4511 115.868 20.6455 114.808 20.6118C113.488 20.6271 112.179 20.378 110.958 19.8791C109.736 19.3803 108.627 18.6418 107.696 17.7073C105.827 15.6513 104.8 12.9676 104.818 10.1892C104.818 7.01329 105.931 4.54747 107.506 3.29462C109.163 2.01672 111.226 1.38072 113.314 1.50385C116.816 1.50385 119.015 2.67111 119.694 3.70219C120.018 4.24835 120.213 4.86107 120.265 5.49392C120.291 5.73807 120.318 5.90051 120.455 5.90051C120.649 5.90051 120.699 5.7653 120.699 5.3305C120.691 4.04292 120.756 2.75594 120.893 1.47565C120.893 1.36671 120.839 1.25873 120.567 1.23149C119.828 1.20111 119.093 1.11035 118.369 0.960115C117.001 0.681724 115.611 0.52741 114.215 0.49905C111.695 0.373979 109.191 0.966974 106.994 2.20907C105.541 3.18827 104.361 4.52262 103.568 6.08553C102.774 7.64845 102.394 9.38812 102.461 11.1395C102.445 12.5809 102.724 14.0104 103.279 15.3406C103.834 16.6707 104.655 17.8736 105.692 18.8755C108.707 21.5086 112.56 21.779 114.623 21.779C116.608 21.8031 118.573 21.3862 120.378 20.5583C120.704 20.3637 120.731 20.3141 120.731 19.0924V16.0527C120.731 14.9127 120.731 14.0985 120.785 13.2318C120.84 12.2815 121.057 11.8204 121.79 11.6842C122.014 11.6377 122.242 11.6104 122.471 11.6025C122.579 11.6025 122.688 11.5481 122.688 11.4401C122.679 11.2757 122.544 11.2212 122.244 11.2212Z" fill="#505050"/>
<path d="M139.812 17.7355C139.675 17.7355 139.617 17.8444 139.567 18.1421C139.351 19.3093 139.052 19.8793 138.183 20.1517C137.384 20.344 136.562 20.4262 135.741 20.3959C134.981 20.4453 134.219 20.3627 133.488 20.1517C132.807 19.8793 132.646 19.2831 132.592 18.1703C132.565 17.6003 132.592 14.4516 132.592 13.5285V11.1405C132.588 11.1141 132.591 11.0872 132.599 11.0619C132.607 11.0366 132.622 11.0136 132.641 10.9947C132.659 10.9758 132.682 10.9616 132.708 10.9531C132.733 10.9447 132.76 10.9422 132.786 10.946C133.247 10.946 135.935 11.0004 136.668 11.0821C137.64 11.1911 137.971 11.5685 138.079 11.977C138.155 12.223 138.191 12.4794 138.187 12.7367C138.187 12.9546 138.214 13.1715 138.382 13.1715C138.491 13.1715 138.544 13.0363 138.576 12.7649C138.603 12.3846 138.603 11.7601 138.685 10.9168C138.767 10.0209 138.902 9.55984 138.902 9.3974C138.902 9.23496 138.849 9.17951 138.767 9.17951C138.658 9.17951 138.572 9.28846 138.441 9.45091C138.17 9.77676 137.817 9.85848 137.079 9.91295C136.456 9.96645 133.116 9.96644 132.764 9.96644C132.628 9.96644 132.602 9.88473 132.602 9.69505V2.20518C132.602 2.0155 132.656 1.9338 132.764 1.9338C133.063 1.9338 136.022 1.96006 136.483 2.01551C137.676 2.12348 138.247 2.39486 138.437 3.01934C138.533 3.30818 138.579 3.61106 138.573 3.91521C138.573 4.13213 138.627 4.2683 138.79 4.2683C138.899 4.2683 138.985 4.07376 139.008 3.80723C139.062 3.10105 139.09 2.58551 139.116 2.17892C139.165 1.74991 139.238 1.32389 139.333 0.902727C139.333 0.766547 139.306 0.658569 139.224 0.658569C139.118 0.669701 139.015 0.70678 138.926 0.766548C138.52 0.879006 138.099 0.93401 137.677 0.929962C137.054 0.957198 131.651 0.957198 131.461 0.957198C129.751 0.875491 129.018 0.875491 128.393 0.875491C128.095 0.875491 127.958 0.929955 127.958 1.0924C127.958 1.20037 128.121 1.22858 128.312 1.25485C128.575 1.26535 128.838 1.29264 129.099 1.33656C129.994 1.52623 130.211 1.96006 130.266 2.88316C130.32 3.75179 130.32 4.51245 130.32 8.74568V13.5227C130.32 15.9379 130.293 17.3231 130.266 18.3814C130.211 20.4173 129.858 20.7976 129.293 20.9328C129.088 20.9786 128.879 21.006 128.67 21.0145C128.506 21.0417 128.371 21.0962 128.371 21.1769C128.371 21.3403 128.507 21.3948 128.806 21.3948C129.512 21.4221 130.168 21.3131 130.815 21.3131C131.873 21.3131 133.122 21.3676 134.208 21.3948C135.266 21.4221 136.162 21.4765 138.172 21.4765C139.23 21.4765 139.448 21.4765 139.638 20.7703C139.799 19.8991 139.917 19.0203 139.991 18.1372C139.974 17.9524 139.974 17.7355 139.812 17.7355Z" fill="#505050"/>
</svg>
