<svg width="180" height="71" viewBox="0 0 180 71" fill="none" xmlns="http://www.w3.org/2000/svg">
<path d="M90.8984 4.98335C90.8191 4.81211 90.6925 4.66712 90.5335 4.56551C90.3744 4.46391 90.1897 4.40991 90.001 4.40991C89.8123 4.40991 89.6275 4.46391 89.4685 4.56551C89.3095 4.66712 89.1829 4.81211 89.1036 4.98335L85.3345 11.6873C85.157 12.0338 85.0645 12.4176 85.0645 12.8069C85.0645 13.1963 85.157 13.5801 85.3345 13.9266L89.1036 20.6305C89.1764 20.8088 89.3006 20.9613 89.4605 21.0687C89.6203 21.1761 89.8085 21.2334 90.001 21.2334C90.1935 21.2334 90.3817 21.1761 90.5415 21.0687C90.7013 20.9613 90.8256 20.8088 90.8984 20.6305L94.6686 13.9266C94.8461 13.5801 94.9387 13.1963 94.9387 12.8069C94.9387 12.4176 94.8461 12.0338 94.6686 11.6873L90.8984 4.98335ZM93.88 13.4856L90.1132 20.1896C90.0828 20.2407 90.0477 20.2888 90.0085 20.3335C89.9566 20.2981 89.9165 20.248 89.8934 20.1896L86.1185 13.4856C86.0189 13.2732 85.9672 13.0415 85.9672 12.8069C85.9672 12.5724 86.0189 12.3406 86.1185 12.1283L89.8887 5.4243C89.9181 5.37311 89.9524 5.32491 89.9912 5.28038C90.0452 5.31522 90.0877 5.3653 90.1132 5.4243L93.88 12.1283C93.9814 12.3401 94.034 12.5721 94.034 12.8069C94.034 13.0418 93.9814 13.2737 93.88 13.4856Z" fill="white"/>
<path d="M71.4646 14.9098C68.7973 15.4313 66.1126 14.5713 63.4971 12.3527C63.4683 12.324 63.4234 12.2768 63.3658 12.21C65.5957 8.84821 65.6763 4.99254 64.4295 3.1263C64.0891 2.5917 63.5811 2.18501 62.9849 1.96983C62.3888 1.75464 61.7381 1.74311 61.1348 1.93701C60.5749 2.18469 60.0898 2.57486 59.7278 3.06858C59.3658 3.5623 59.1396 4.14232 59.0718 4.75077C58.7483 7.43443 61.0657 10.7548 62.2445 12.2411C60.2875 14.8395 55.6987 18.5225 46.1194 16.0081C43.4953 15.0662 40.9648 13.8818 38.5605 12.4702C33.8152 9.95806 27.906 6.82885 23.1008 5.90782C17.5036 5.14106 15.4832 6.20715 13.0518 8.91384C12.5959 9.5262 12.2399 10.207 11.9973 10.9309C11.1936 10.6882 10.3631 10.5455 9.52447 10.5061C0.775204 10.5924 0.0925312 16.1739 0.0844727 16.213C-0.800815 22.4185 7.1426 25.2875 7.22203 25.3151L7.52135 24.4689C7.44767 24.4401 0.192687 21.8129 0.975516 16.3212C0.975516 16.2729 1.5753 11.4858 9.5095 11.4041C10.2722 11.4399 11.0275 11.5706 11.7578 11.7932C11.5078 13.3891 11.6081 15.0203 12.0516 16.5736C12.4951 18.1268 13.2713 19.565 14.3262 20.7882C16.2982 23.153 18.6559 24.0625 20.4979 23.1564C21.1649 22.8441 21.6989 22.3046 22.0044 21.6344C22.3098 20.9642 22.3667 20.2071 22.1648 19.4988C21.4166 16.3903 17.0362 12.7165 12.84 11.2095C13.05 10.5903 13.3552 10.0077 13.7448 9.48257C15.969 7.00269 17.7476 6.07706 22.9546 6.79316C27.6032 7.69117 33.4445 10.7812 38.1392 13.2657C40.604 14.7144 43.2014 15.9245 45.8961 16.8796C56.0429 19.5472 60.9655 15.3242 62.8351 12.9503C62.88 12.9986 62.903 13.0262 62.9076 13.0274C65.8191 15.4969 68.8249 16.4168 71.8284 15.7525C74.4085 15.1324 76.6776 13.6008 78.2177 11.4398L77.4026 11.0564C75.9381 12.9993 73.8356 14.3638 71.4646 14.9098ZM21.2888 19.7106C21.4473 20.2233 21.4119 20.7764 21.1892 21.2646C20.9665 21.7529 20.5722 22.1422 20.0811 22.3586C18.3658 23.206 16.3431 21.8025 15.0158 20.2115C14.0573 19.105 13.3462 17.8065 12.9303 16.4029C12.5143 14.9993 12.4031 13.5231 12.604 12.073C16.4893 13.4971 20.6211 16.9165 21.2888 19.7106ZM62.7683 11.4743C61.6252 9.97763 59.6428 6.93707 59.9755 4.75883C60.0364 4.33326 60.2019 3.92946 60.4573 3.58365C60.7127 3.23784 61.0499 2.96083 61.4387 2.77746C61.6363 2.73019 61.8387 2.70547 62.0419 2.70377C62.3717 2.70137 62.6964 2.78507 62.9839 2.9466C63.2714 3.10813 63.5118 3.3419 63.6813 3.62481C64.7127 5.1733 64.616 8.51894 62.7683 11.4743Z" fill="white"/>
<path d="M49.8403 13.098C50.169 13.0984 50.4976 13.0814 50.8245 13.0473L50.7325 12.1529C46.9818 12.5328 42.6233 10.4951 36.1868 5.31807C30.2753 0.828312 22.9823 0.367824 20.8894 0.329834L20.8733 1.23008C22.8983 1.26462 29.9472 1.71475 35.6331 6.02836C41.7219 10.9268 46.0574 13.098 49.8403 13.098Z" fill="white"/>
<path d="M179.917 16.2119C179.917 16.1728 179.226 10.5913 170.477 10.505C169.638 10.5444 168.807 10.6871 168.004 10.9298C167.761 10.2059 167.405 9.52512 166.949 8.91275C164.518 6.20607 162.496 5.13997 156.9 5.90673C152.095 6.83352 146.187 9.95813 141.441 12.4691C139.036 13.8807 136.506 15.0651 133.882 16.007C124.303 18.5283 119.71 14.8442 117.758 12.2411C118.936 10.7548 121.254 7.43334 120.93 4.75084C120.862 4.14223 120.635 3.5622 120.273 3.06866C119.91 2.57512 119.424 2.18535 118.864 1.93824C118.261 1.74433 117.61 1.75586 117.014 1.97104C116.418 2.18623 115.91 2.59292 115.569 3.12752C114.322 4.99376 114.403 8.84943 116.633 12.2112C116.575 12.278 116.53 12.3263 116.502 12.354C113.887 14.5736 111.206 15.4337 108.534 14.911C106.165 14.364 104.064 12.9996 102.601 11.0576L101.786 11.441C103.326 13.602 105.595 15.1336 108.175 15.7537C111.178 16.418 114.184 15.4981 117.096 13.0286C117.096 13.0286 117.122 12.9998 117.168 12.9515C119.038 15.3254 123.96 19.5472 134.107 16.8808C136.802 15.9257 139.399 14.7156 141.864 13.2669C146.558 10.7836 152.4 7.69239 157.049 6.79438C162.253 6.07828 164.032 7.00276 166.258 9.48379C166.648 10.0089 166.953 10.5915 167.163 11.2107C162.968 12.7224 158.588 16.3973 157.838 19.5C157.637 20.2083 157.694 20.9654 157.999 21.6356C158.304 22.3058 158.838 22.8454 159.505 23.1577C161.347 24.0626 163.704 23.1577 165.677 20.7895C166.732 19.5662 167.508 18.1281 167.952 16.5748C168.395 15.0215 168.495 13.3903 168.246 11.7944C168.976 11.5718 169.731 11.4411 170.494 11.4053C178.429 11.4847 179.022 16.2741 179.028 16.3225C179.811 21.8141 172.556 24.4414 172.484 24.4678L172.782 25.314C172.857 25.2864 180.802 22.4174 179.917 16.2119ZM116.319 3.62718C116.488 3.34427 116.728 3.1105 117.016 2.94897C117.304 2.78744 117.628 2.70374 117.958 2.70615C118.161 2.70785 118.364 2.73256 118.561 2.77983C118.95 2.9632 119.287 3.24021 119.543 3.58602C119.798 3.93184 119.964 4.33564 120.024 4.7612C120.357 6.93944 118.374 9.97885 117.232 11.4767C115.383 8.51901 115.287 5.17336 116.319 3.62718ZM164.981 20.2127C163.656 21.8038 161.633 23.206 159.915 22.3598C159.424 22.1434 159.03 21.7541 158.807 21.2658C158.585 20.7776 158.549 20.2245 158.708 19.7119C159.381 16.9131 163.507 13.4949 167.389 12.0753C167.59 13.525 167.479 15.0009 167.064 16.4043C166.649 17.8076 165.938 19.1061 164.981 20.2127Z" fill="white"/>
<path d="M144.366 6.02617C150.051 1.71255 157.101 1.26243 159.126 1.22789L159.109 0.327637C157.017 0.363325 149.724 0.829568 143.812 5.31587C137.377 10.4964 133.017 12.5306 129.266 12.1507L129.174 13.0452C129.501 13.0793 129.83 13.0962 130.159 13.0958C133.942 13.0981 138.271 10.9269 144.366 6.02617Z" fill="white"/>
<path d="M45.1258 57.0415C45.1258 52.5515 45.1258 51.7456 45.0682 50.8246C45.0107 49.8471 44.7804 49.3855 43.8307 49.1851C43.5548 49.1393 43.2765 49.1101 42.9972 49.0976C42.7957 49.07 42.623 49.0412 42.623 48.9261C42.623 48.7534 42.7669 48.6958 43.0835 48.6958C43.7443 48.6958 44.5214 48.6958 46.3346 48.7822C46.536 48.7822 52.2622 48.7822 52.923 48.7534C53.3701 48.7573 53.8157 48.6991 54.2469 48.5807C54.3415 48.5171 54.4501 48.4776 54.5635 48.4656C54.6498 48.4656 54.6786 48.5807 54.6786 48.7246C54.5773 49.1706 54.5004 49.6218 54.4484 50.0762C54.4196 50.508 54.3908 51.056 54.3332 51.8032C54.3045 52.091 54.2181 52.2925 54.103 52.2925C53.9303 52.2925 53.8728 52.1485 53.8728 51.9183C53.8783 51.5959 53.8297 51.2748 53.7289 50.9685C53.5274 50.3065 52.923 50.0187 51.6567 49.9047C51.1674 49.8471 48.0303 49.8172 47.7137 49.8172C47.5986 49.8172 47.5422 49.9047 47.5422 50.105V58.0489C47.5422 58.2504 47.5698 58.3367 47.7137 58.3367C48.089 58.3367 51.6279 58.3367 52.2898 58.2792C53.0658 58.2205 53.441 58.1353 53.7277 57.7899C53.8716 57.6172 53.9579 57.5021 54.0731 57.5021C54.1594 57.5021 54.217 57.5596 54.217 57.7323C54.217 57.905 54.0731 58.3955 53.9867 59.3441C53.9004 60.2352 53.9004 60.8972 53.8716 61.3013C53.8428 61.5891 53.7853 61.7331 53.6701 61.7331C53.4975 61.7331 53.4687 61.5028 53.4687 61.2725C53.4734 60.9995 53.4346 60.7274 53.3536 60.4666C53.2384 60.0349 52.8931 59.6331 51.857 59.5168C51.0799 59.4305 48.2318 59.3729 47.7414 59.3729C47.7142 59.37 47.6868 59.3732 47.6611 59.3823C47.6354 59.3914 47.612 59.4061 47.5928 59.4255C47.5736 59.4448 47.5589 59.4683 47.55 59.494C47.541 59.5198 47.538 59.5473 47.5411 59.5744V62.1072C47.5411 63.0858 47.5123 66.4234 47.5411 67.0278C47.5986 68.2068 47.7713 68.8411 48.4896 69.1278C49.2648 69.3525 50.0732 69.4402 50.8784 69.3868C51.7492 69.4192 52.6204 69.332 53.4675 69.1278C54.3885 68.8411 54.7051 68.2355 54.9353 66.999C54.9929 66.6824 55.0505 66.5673 55.1944 66.5673C55.367 66.5673 55.367 66.7976 55.367 66.999C55.2889 67.9349 55.1641 68.8664 54.9929 69.7898C54.7914 70.5381 54.5612 70.5381 53.4399 70.5381C51.3101 70.5381 50.3604 70.4806 49.238 70.4518C48.0867 70.423 46.764 70.3654 45.6415 70.3654C44.9508 70.3654 44.2601 70.4806 43.5129 70.4518C43.1963 70.4518 43.0525 70.3942 43.0525 70.2215C43.0525 70.1352 43.1963 70.0776 43.369 70.0488C43.5914 70.0399 43.8126 70.011 44.0298 69.9625C44.6342 69.8186 45.0084 69.4156 45.0659 67.2581C45.0947 66.1356 45.1235 64.6677 45.1235 62.1072L45.1258 57.0415Z" fill="white"/>
<path d="M60.2067 51.43C59.5735 49.8182 59.1418 49.5028 58.1345 49.2149C57.7761 49.1313 57.4087 49.0926 57.0408 49.0998C56.8681 49.0998 56.8105 49.0135 56.8105 48.8995C56.8105 48.7268 57.0984 48.698 57.5588 48.698C58.9403 48.698 60.4933 48.7843 60.8387 48.7843C61.1265 48.7843 62.364 48.698 63.4565 48.698C63.9746 48.698 64.2336 48.7556 64.2336 48.8995C64.2336 49.0434 64.1473 49.0998 63.947 49.0998C63.577 49.0876 63.2075 49.1362 62.8533 49.2437C62.7374 49.2867 62.6384 49.366 62.571 49.4696C62.5036 49.5733 62.4714 49.6959 62.4792 49.8194C62.6 50.4534 62.7931 51.0714 63.0548 51.6614L68.926 66.9402C70.5952 63.0857 74.4518 53.043 75.0838 50.9706C75.2196 50.6196 75.3067 50.2516 75.3429 49.8769C75.3497 49.7426 75.3181 49.6091 75.2519 49.4921C75.1856 49.3751 75.0874 49.2793 74.9687 49.2161C74.6122 49.1219 74.2434 49.0831 73.8751 49.101C73.7024 49.101 73.5585 49.0733 73.5585 48.9294C73.5585 48.7567 73.7312 48.6992 74.1917 48.6992C75.3429 48.6992 76.6668 48.7855 77.0121 48.7855C77.1848 48.7855 78.4212 48.6992 79.2559 48.6992C79.5725 48.6992 79.7451 48.7567 79.7451 48.9006C79.7451 49.0445 79.63 49.101 79.3998 49.101C78.9162 49.0859 78.4379 49.2054 78.0183 49.4463C77.6453 49.7065 77.2125 50.1958 76.4365 52.1519C76.1199 52.9578 74.6809 56.4116 73.2131 59.9496C71.4587 64.1518 70.1635 67.2591 69.5016 68.6683C68.6957 70.3952 68.5806 70.8557 68.2928 70.8557C67.9475 70.8557 67.8047 70.4528 67.2567 69.0712L60.2067 51.43Z" fill="white"/>
<path d="M84.0071 57.0415C84.0071 52.5515 84.0071 51.7456 83.9507 50.8246C83.8932 49.8471 83.6629 49.3855 82.7132 49.1851C82.4369 49.1393 82.1582 49.1101 81.8785 49.0976C81.6771 49.07 81.5044 49.0412 81.5044 48.9261C81.5044 48.7534 81.6483 48.6958 81.9649 48.6958C82.6268 48.6958 83.4028 48.6958 85.2159 48.7822C85.4174 48.7822 91.1435 48.7822 91.8055 48.7534C92.2527 48.7573 92.6982 48.6992 93.1294 48.5807C93.2238 48.5168 93.3326 48.4772 93.446 48.4656C93.5312 48.4656 93.5611 48.5807 93.5611 48.7246C93.4595 49.1706 93.3826 49.6218 93.3309 50.0762C93.3032 50.508 93.2744 51.056 93.2157 51.8032C93.1869 52.091 93.1006 52.2925 92.9855 52.2925C92.8128 52.2925 92.7552 52.1485 92.7552 51.9183C92.7615 51.5958 92.7129 51.2746 92.6113 50.9685C92.411 50.3065 91.8055 50.0187 90.5392 49.9047C90.0499 49.8471 86.914 49.8172 86.5974 49.8172C86.4823 49.8172 86.4247 49.9047 86.4247 50.105V58.0489C86.4247 58.2504 86.4535 58.3367 86.5974 58.3367C86.9715 58.3367 90.5115 58.3367 91.1723 58.2792C91.9494 58.2205 92.3235 58.1353 92.6102 57.7899C92.7541 57.6172 92.8404 57.5021 92.9556 57.5021C93.0407 57.5021 93.0995 57.5596 93.0995 57.7323C93.0995 57.905 92.9556 58.3955 92.8692 59.3441C92.7829 60.2352 92.7829 60.8972 92.7541 61.3013C92.7265 61.5891 92.6689 61.7331 92.5538 61.7331C92.3811 61.7331 92.3523 61.5028 92.3523 61.2725C92.3565 60.9995 92.3177 60.7275 92.2372 60.4666C92.1221 60.0349 91.7767 59.6331 90.7406 59.5168C89.9635 59.4305 87.1154 59.3729 86.6262 59.3729C86.5989 59.3698 86.5714 59.3728 86.5455 59.3819C86.5196 59.3909 86.4962 59.4056 86.4768 59.425C86.4574 59.4444 86.4427 59.4679 86.4336 59.4937C86.4246 59.5196 86.4216 59.5472 86.4247 59.5744V62.1072C86.4247 63.0858 86.3959 66.4234 86.4247 67.0278C86.4823 68.2068 86.6549 68.8411 87.3745 69.1278C88.1492 69.3525 88.9572 69.4402 89.7621 69.3868C90.6333 69.4192 91.5048 69.332 92.3523 69.1278C93.2733 68.8411 93.5899 68.2355 93.819 66.999C93.8777 66.6824 93.9341 66.5673 94.078 66.5673C94.2507 66.5673 94.2507 66.7976 94.2507 66.999C94.173 67.9349 94.0486 68.8664 93.8777 69.7898C93.6751 70.5381 93.446 70.5381 92.3235 70.5381C90.1938 70.5381 89.2452 70.4806 88.1227 70.4518C86.9715 70.423 85.6476 70.3654 84.5263 70.3654C83.8356 70.3654 83.1449 70.4806 82.3966 70.4518C82.08 70.4518 81.9361 70.3942 81.9361 70.2215C81.9361 70.1352 82.08 70.0776 82.2527 70.0488C82.4755 70.0399 82.697 70.011 82.9146 69.9625C83.519 69.8186 83.8932 69.4156 83.9507 67.2581C83.9784 66.1356 84.0071 64.6677 84.0071 62.1072V57.0415Z" fill="white"/>
<path d="M100.615 61.9587C100.615 51.5706 100.672 55.3111 100.643 49.7285C100.643 48.6071 100.73 48.2905 100.96 48.2905C101.19 48.2905 101.679 48.9237 101.967 49.2116C102.399 49.7009 106.687 54.3325 111.117 59.0804C113.965 62.1314 117.104 65.6428 118.024 66.5915L117.709 51.9701C117.679 50.0992 117.479 49.4671 116.585 49.2357C116.179 49.1454 115.765 49.0971 115.349 49.0918C115.032 49.0918 114.946 49.0055 114.946 48.8915C114.946 48.7188 115.176 48.69 115.522 48.69C116.817 48.69 118.199 48.7764 118.515 48.7764C118.83 48.7764 119.781 48.69 120.961 48.69C121.277 48.69 121.478 48.7188 121.478 48.8915C121.478 49.0066 121.363 49.0642 121.163 49.0918C120.932 49.1218 120.759 49.1494 120.413 49.207C119.607 49.3785 119.407 49.8102 119.407 51.7962L119.35 68.6051C119.35 70.5035 119.292 70.6474 119.091 70.6474C118.86 70.6474 118.515 70.3308 116.991 68.8054C116.673 68.5175 112.531 64.2889 109.48 61.0077C106.142 57.4111 102.892 53.7856 101.971 52.7495L102.344 66.5327C102.402 68.8929 102.689 69.6412 103.467 69.8715C103.938 69.9842 104.421 70.0421 104.905 70.0442C105.049 70.0442 105.135 70.1017 105.135 70.2169C105.135 70.3896 104.964 70.4471 104.617 70.4471C102.978 70.4471 101.827 70.3608 101.567 70.3608C101.307 70.3608 100.1 70.4471 98.8037 70.4471C98.5171 70.4471 98.3433 70.4183 98.3433 70.2169C98.3433 70.1017 98.4296 70.0442 98.5735 70.0442C98.9727 70.0439 99.3698 69.9858 99.7524 69.8715C100.472 69.67 100.616 68.8353 100.616 66.2161L100.615 61.9587Z" fill="white"/>
<path d="M134.947 62.1059C134.947 64.869 134.947 67.1417 135.091 68.3494C135.179 69.1852 135.35 69.8173 136.214 69.9324C136.643 69.9932 137.075 70.0316 137.509 70.0475C137.68 70.0475 137.739 70.1339 137.739 70.2202C137.739 70.3641 137.595 70.4505 137.279 70.4505C135.696 70.4505 133.884 70.3641 133.74 70.3641C133.596 70.3641 131.783 70.4505 130.919 70.4505C130.603 70.4505 130.459 70.3929 130.459 70.2202C130.459 70.1339 130.516 70.0475 130.689 70.0475C130.98 70.0376 131.269 69.999 131.552 69.9324C132.128 69.8173 132.272 69.1852 132.387 68.3494C132.531 67.1417 132.531 64.869 132.531 62.1059V49.9333C131.121 49.9621 129.682 49.9621 128.271 49.992C126.487 50.0197 125.796 50.2223 125.337 50.9131C125.143 51.1922 124.979 51.4909 124.848 51.8042C124.761 52.0344 124.675 52.092 124.56 52.092C124.474 52.092 124.416 52.0057 124.416 51.833C124.416 51.5451 124.992 49.0699 125.049 48.8396C125.107 48.6657 125.221 48.2927 125.337 48.2927C125.743 48.4591 126.169 48.5751 126.603 48.6381C127.438 48.7245 128.532 48.782 128.877 48.782H139.666C140.35 48.795 141.033 48.7468 141.708 48.6381C142.14 48.5806 142.399 48.4942 142.514 48.4942C142.658 48.4942 142.658 48.6657 142.658 48.8396C142.658 49.7031 142.571 51.6879 142.571 52.0045C142.571 52.2635 142.484 52.3787 142.37 52.3787C142.227 52.3787 142.169 52.2923 142.14 51.8894C142.14 51.7742 142.113 51.6879 142.113 51.5728C142.026 50.7093 141.335 50.0484 138.574 49.9909C137.365 49.961 136.156 49.961 134.947 49.9322V62.1059Z" fill="white"/>
</svg>
