<svg width="432" height="239" viewBox="0 0 432 239" fill="none" xmlns="http://www.w3.org/2000/svg">
<path d="M394.768 170.679C394.82 170.595 394.888 170.522 394.968 170.464C395.049 170.406 395.14 170.365 395.236 170.343C395.333 170.321 395.432 170.319 395.53 170.336C395.627 170.353 395.72 170.389 395.803 170.443C396.18 170.663 396.211 170.961 395.899 171.337C395.018 172.343 393.683 173.897 391.895 175.999C390.108 178.101 388.146 180.409 386.011 182.923C383.875 185.434 381.725 187.93 379.559 190.411C377.394 192.892 375.462 195.011 373.765 196.766C369.622 201.098 366.577 203.264 364.631 203.264C363.311 203.264 362.651 202.197 362.652 200.063C362.725 198.197 363.026 196.347 363.546 194.554C364.142 192.259 365.068 189.417 366.323 186.03C366.701 185.151 367.047 184.335 367.361 183.581C367.673 182.826 368.02 182.026 368.396 181.178C368.772 180.33 369.197 179.39 369.667 178.352C370.137 177.314 370.718 176.077 371.41 174.633C371.597 174.255 371.801 173.85 372.024 173.407C372.248 172.964 372.448 172.593 372.639 172.278C372.02 172.63 371.437 173.04 370.897 173.503C370.3 174.005 369.752 174.508 369.25 175.011C367.993 176.268 366.627 177.76 365.153 179.486C363.679 181.212 362.282 182.892 360.962 184.525C359.392 186.408 357.853 188.354 356.346 190.363C356.067 190.425 355.778 190.425 355.499 190.363C355.37 190.329 355.25 190.27 355.144 190.189C355.039 190.108 354.95 190.007 354.884 189.892C354.7 189.512 354.619 189.09 354.649 188.669C354.681 187.903 354.808 187.144 355.026 186.409C355.089 186.22 355.387 185.372 355.92 183.865C356.454 182.359 357.097 180.648 357.851 178.732C358.604 176.819 359.342 174.935 360.064 173.082C360.786 171.229 361.367 169.863 361.805 168.985C361.997 168.826 362.223 168.713 362.466 168.655C362.773 168.563 363.088 168.5 363.407 168.468C363.677 168.432 363.953 168.464 364.208 168.561C364.311 168.601 364.399 168.673 364.458 168.766C364.517 168.859 364.545 168.969 364.537 169.079C364.15 170.899 363.599 172.68 362.89 174.4C361.916 177.008 360.487 180.634 358.604 185.279C361.181 182.265 363.19 179.926 364.633 178.26C366.075 176.595 367.331 175.23 368.399 174.164C370.973 171.529 372.825 170.211 373.955 170.209C374.646 170.209 375.023 170.696 375.086 171.67C375.149 172.644 374.835 174.009 374.144 175.765C373.138 177.963 372.29 179.879 371.601 181.512C371.287 182.203 370.99 182.909 370.707 183.631C370.424 184.352 370.158 184.964 369.907 185.467C369.689 186.077 369.437 186.674 369.152 187.255C367.708 190.519 366.578 193.282 365.763 195.543C364.949 197.804 364.54 199.468 364.538 200.535C364.538 201.791 365.182 202.073 366.47 201.382C367.758 200.692 369.877 198.839 372.827 195.825C373.768 194.819 374.741 193.752 375.745 192.624C376.75 191.495 378.037 190.035 379.607 188.245C381.176 186.454 383.154 184.163 385.541 181.371C387.928 178.58 391.003 175.016 394.768 170.679Z" fill="white"/>
<path d="M362.494 170.96C362.617 171.111 362.676 171.304 362.658 171.498C362.64 171.691 362.547 171.87 362.398 171.996C358.85 174.777 354.957 177.088 350.815 178.869C348.802 179.75 346.723 180.474 344.598 181.036C342.473 181.599 340.296 181.945 338.101 182.071C337.535 182.95 336.953 183.798 336.357 184.613C335.757 185.433 335.113 186.22 334.427 186.969C333.578 187.916 332.575 188.712 331.46 189.324C330.639 189.785 329.719 190.043 328.778 190.077C328.128 190.093 327.486 189.925 326.928 189.592C326.369 189.258 325.917 188.774 325.622 188.194C324.901 186.939 324.698 185.149 325.011 182.825C325.192 181.718 325.475 180.631 325.857 179.576C326.238 178.532 326.679 177.51 327.176 176.516C327.059 176.087 327.027 175.639 327.082 175.197C327.125 173.712 327.478 172.253 328.117 170.911C328.694 169.693 329.511 168.604 330.52 167.71C331.458 166.885 332.523 166.217 333.674 165.733C334.715 165.28 335.836 165.04 336.971 165.025C338.325 164.993 339.64 165.482 340.644 166.391C341.647 167.303 342.15 168.732 342.153 170.677C342.119 172.146 341.881 173.604 341.447 175.009C340.837 176.953 339.999 178.819 338.95 180.566C340.894 180.378 342.817 180.016 344.696 179.482C346.584 178.948 348.439 178.303 350.252 177.551C352.254 176.676 354.204 175.685 356.092 174.584C357.976 173.487 359.77 172.243 361.459 170.864C361.61 170.742 361.803 170.684 361.996 170.702C362.189 170.72 362.368 170.812 362.494 170.96ZM333.487 186.123C334.606 184.92 335.586 183.593 336.406 182.169C335.459 182.168 334.514 182.089 333.58 181.932C332.641 181.777 331.724 181.508 330.849 181.132C330.164 180.859 329.528 180.477 328.966 180.002C328.78 180.567 328.591 181.131 328.401 181.695C328.215 182.253 328.058 182.819 327.93 183.392C327.562 184.599 327.513 185.881 327.789 187.112C327.869 187.51 328.089 187.866 328.408 188.117C328.727 188.368 329.125 188.497 329.531 188.48C330.598 188.48 331.917 187.695 333.487 186.123ZM331.226 170.584C331.571 170.497 331.93 170.486 332.28 170.551C332.63 170.616 332.961 170.755 333.252 170.96C333.972 171.401 334.082 171.935 333.58 172.562C331.898 174.271 330.555 176.284 329.625 178.495C330.085 179.093 330.705 179.55 331.413 179.813C332.314 180.197 333.266 180.451 334.239 180.568C335.27 180.695 336.309 180.757 337.348 180.755C338.429 178.94 339.313 177.014 339.983 175.01C340.434 173.673 340.688 172.277 340.737 170.866C340.737 169.297 340.345 168.152 339.56 167.429C338.809 166.721 337.813 166.332 336.781 166.345C335.955 166.36 335.139 166.537 334.381 166.864C333.509 167.224 332.699 167.716 331.978 168.324C331.184 168.998 330.501 169.792 329.952 170.678C329.351 171.632 328.922 172.684 328.682 173.785C329.377 172.605 330.233 171.528 331.226 170.584H331.226Z" fill="white"/>
<path d="M331.208 170.866C331.268 170.793 331.343 170.733 331.429 170.693C331.514 170.652 331.608 170.631 331.703 170.631C331.798 170.631 331.891 170.652 331.977 170.693C332.062 170.733 332.138 170.793 332.198 170.866C332.276 170.915 332.342 170.983 332.388 171.062C332.435 171.142 332.462 171.232 332.467 171.325C332.471 171.417 332.454 171.51 332.415 171.594C332.376 171.678 332.318 171.752 332.245 171.808C330.737 173.253 328.994 174.823 327.017 176.517C325.04 178.212 322.968 179.877 320.802 181.512C318.635 183.145 316.484 184.698 314.349 186.172C312.435 187.511 310.455 188.752 308.416 189.892C305.969 191.211 304.022 191.871 302.576 191.871C300.567 191.871 299.563 190.709 299.562 188.386C299.581 186.961 299.819 185.547 300.269 184.195C300.77 182.643 301.352 181.118 302.011 179.627C302.703 178.058 303.488 176.456 304.367 174.821C305.246 173.186 306.094 171.616 306.91 170.112C307.233 169.664 307.651 169.294 308.134 169.028C308.584 168.765 309.079 168.589 309.595 168.511C309.986 168.445 310.387 168.46 310.772 168.556C311.084 168.65 311.18 168.824 311.052 169.075C310.487 170.205 309.717 171.68 308.744 173.501C307.771 175.322 306.814 177.206 305.871 179.152C304.93 181.099 304.114 182.967 303.423 184.756C302.822 186.143 302.471 187.625 302.386 189.135C302.386 190.077 302.826 190.485 303.706 190.359C304.586 190.233 305.936 189.668 307.756 188.665C309.512 187.662 311.458 186.437 313.594 184.991C315.729 183.545 317.864 182.007 319.998 180.378C322.132 178.745 324.173 177.096 326.121 175.432C328.069 173.768 329.765 172.246 331.208 170.866ZM313.032 164.272C312.747 164.573 312.361 164.757 311.949 164.79C311.557 164.826 311.163 164.744 310.818 164.554C310.646 164.46 310.495 164.333 310.373 164.179C310.252 164.025 310.163 163.849 310.112 163.66C310.003 163.125 310.103 162.568 310.391 162.105C310.512 161.827 310.686 161.576 310.904 161.365C311.123 161.155 311.38 160.99 311.662 160.88C312.113 160.695 312.615 160.678 313.076 160.833C313.284 160.917 313.471 161.044 313.625 161.207C313.78 161.369 313.897 161.563 313.97 161.775C314.057 162.052 314.078 162.346 314.029 162.632C313.98 162.918 313.865 163.189 313.691 163.422L313.032 164.272Z" fill="white"/>
<path d="M276.294 169.737C275.602 171.432 274.99 173.049 274.458 174.587C273.925 176.125 273.439 177.585 272.997 178.967C271.993 182.421 271.177 185.56 270.548 188.385C269.982 190.731 269.667 193.13 269.607 195.543C269.607 198.807 270.674 200.439 272.809 200.44C274.071 200.357 275.304 200.021 276.434 199.452C278.275 198.573 280.026 197.516 281.661 196.296C283.919 194.569 286.088 192.731 288.16 190.786C290.42 188.683 292.665 186.485 294.893 184.192C297.121 181.899 299.272 179.607 301.344 177.318C303.418 175.028 305.302 172.878 306.996 170.867C307.059 170.793 307.137 170.733 307.224 170.691C307.311 170.648 307.406 170.624 307.504 170.62C307.601 170.615 307.697 170.631 307.788 170.665C307.879 170.7 307.962 170.752 308.032 170.82C308.117 170.868 308.189 170.935 308.243 171.017C308.296 171.099 308.329 171.193 308.338 171.29C308.347 171.387 308.333 171.485 308.296 171.576C308.259 171.666 308.2 171.746 308.126 171.809C306.303 173.88 304.357 176.062 302.286 178.355C300.215 180.647 298.065 182.923 295.835 185.183C293.605 187.444 291.345 189.61 289.053 191.68C286.761 193.751 284.517 195.603 282.32 197.238C277.8 200.628 274.284 202.323 271.771 202.323C271.044 202.363 270.32 202.193 269.686 201.834C269.052 201.475 268.535 200.942 268.195 200.297C267.442 198.948 267.065 197.049 267.064 194.6C267.101 192.165 267.353 189.738 267.817 187.347C268.322 184.585 269.044 181.509 269.984 178.118C270.549 176.172 271.318 173.912 272.291 171.336C273.264 168.761 274.395 166.029 275.682 163.142C276.968 160.255 278.365 157.304 279.873 154.289C281.382 151.274 282.951 148.292 284.582 145.342C280.877 145.342 277.408 145.389 274.175 145.483C270.942 145.577 268.117 145.718 265.7 145.907C263.806 146.009 261.928 146.308 260.096 146.801C258.777 147.211 258.181 147.76 258.308 148.448C258.436 149.136 258.247 149.529 257.743 149.625C257.24 149.719 256.929 149.423 256.802 148.731C256.551 147.601 257.179 146.675 258.685 145.952C260.684 145.089 262.792 144.503 264.949 144.21C268.085 143.724 271.244 143.409 274.414 143.268C278.054 143.081 281.916 142.956 285.998 142.892C288.196 139.125 290.378 135.656 292.545 132.485C294.344 129.761 296.41 127.223 298.711 124.907C300.155 123.652 301.316 123.024 302.196 123.024C302.471 123.006 302.746 123.073 302.982 123.216C303.218 123.359 303.404 123.572 303.514 123.824C303.78 124.498 303.846 125.233 303.704 125.943C302.946 128.396 301.935 130.763 300.686 133.007C299.116 136.022 297.232 139.319 295.036 142.898H305.68C309.507 142.898 313.133 142.866 316.555 142.804C319.978 142.741 322.977 142.616 325.552 142.428C327.628 142.309 329.691 142.025 331.722 141.579C333.259 141.202 334.028 140.668 334.028 139.978C334.028 139.35 334.264 139.051 334.736 139.084C335.207 139.116 335.406 139.445 335.346 140.072C335.16 141.329 333.826 142.302 331.345 142.992C328.18 143.797 324.949 144.317 321.692 144.546C317.734 144.892 313.291 145.112 308.363 145.205C303.435 145.298 298.49 145.345 293.53 145.346C292.022 147.669 290.484 149.992 288.915 152.316C287.346 154.639 285.807 156.867 284.3 158.999C282.792 161.135 281.348 163.128 279.967 164.979C278.586 166.829 277.362 168.415 276.294 169.737ZM287.879 145.344C286.244 148.42 284.612 151.622 282.98 154.95C281.349 158.278 279.811 161.575 278.367 164.842C280.375 162.205 282.572 159.176 284.958 155.753C287.343 152.331 289.666 148.862 291.927 145.346L287.879 145.344ZM299.837 126.038C298.194 128.029 296.698 130.138 295.363 132.347C293.447 135.362 291.391 138.878 289.195 142.895H293.433C295.631 139.255 297.561 135.896 299.225 132.818C300.888 129.74 301.908 127.354 302.285 125.66C302.536 124.657 302.363 124.28 301.767 124.53C301.026 124.892 300.369 125.406 299.84 126.038H299.837Z" fill="white"/>
<path d="M273.231 170.585C273.334 170.571 273.438 170.58 273.536 170.613C273.634 170.645 273.723 170.7 273.796 170.773C273.869 170.846 273.924 170.936 273.957 171.034C273.99 171.132 273.999 171.236 273.984 171.338C273.947 171.504 273.883 171.663 273.797 171.81C272.729 172.877 271.395 174.259 269.794 175.954C268.193 177.649 266.435 179.437 264.519 181.319C262.603 183.203 260.594 185.086 258.491 186.971C256.389 188.855 254.317 190.55 252.275 192.056C250.443 193.43 248.507 194.659 246.484 195.73C245.046 196.561 243.433 197.045 241.775 197.142C239.387 197.142 238.195 195.51 238.198 192.245C238.26 189.874 238.672 187.526 239.423 185.276C239.924 183.831 240.411 182.434 240.883 181.085C241.356 179.735 241.874 178.431 242.436 177.173C242.122 177.549 241.855 177.894 241.636 178.209C241.397 178.546 241.129 178.861 240.835 179.15C239.892 180.409 238.783 181.534 237.538 182.494C236.838 183.06 235.986 183.404 235.089 183.482C234.813 183.499 234.538 183.438 234.296 183.304C234.054 183.171 233.855 182.971 233.722 182.729C233.415 182.117 233.269 181.436 233.298 180.752C233.319 179.4 233.624 178.067 234.192 176.84C234.79 175.491 235.583 174.238 236.546 173.121C237.502 172.006 238.631 171.052 239.89 170.296C241.048 169.57 242.385 169.179 243.751 169.166C244.569 169.145 245.369 169.412 246.012 169.919C246.255 169.363 246.689 168.911 247.236 168.647C247.711 168.434 248.224 168.322 248.745 168.318C249.499 168.318 249.875 168.445 249.875 168.695C248.745 171.521 247.474 174.488 246.061 177.595C244.649 180.703 243.472 183.607 242.53 186.307C241.524 189.07 241.021 191.205 241.021 192.712C241.021 194.406 241.68 195.253 242.998 195.254C244.064 195.254 245.414 194.784 247.048 193.842C248.905 192.743 250.683 191.516 252.369 190.168C254.283 188.662 256.261 186.982 258.302 185.129C260.343 183.275 262.29 181.455 264.142 179.668C265.992 177.877 267.671 176.198 269.179 174.629C270.687 173.06 271.879 171.804 272.756 170.861C272.791 170.767 272.858 170.688 272.944 170.638C273.031 170.588 273.132 170.569 273.231 170.585ZM235.654 182.074C236.157 182.074 236.878 181.619 237.819 180.709C238.846 179.705 239.805 178.635 240.692 177.506C241.665 176.283 242.591 175.091 243.471 173.93C244.352 172.768 244.948 171.936 245.259 171.434C245.265 171.362 245.299 171.294 245.353 171.246C245.23 171.123 245.083 171.026 244.921 170.961C244.759 170.896 244.586 170.865 244.411 170.869C243.596 170.869 242.654 171.293 241.587 172.141C240.466 173.041 239.453 174.068 238.569 175.202C237.678 176.32 236.89 177.517 236.216 178.778C235.693 179.637 235.371 180.602 235.274 181.603C235.277 181.92 235.405 182.075 235.654 182.075V182.074Z" fill="white"/>
<path d="M209.044 169.735C208.352 171.432 207.74 173.049 207.207 174.585C206.675 176.122 206.188 177.582 205.747 178.966C204.743 182.419 203.927 185.559 203.298 188.384C202.732 190.73 202.416 193.13 202.357 195.542C202.357 198.807 203.424 200.439 205.558 200.439C206.821 200.357 208.054 200.021 209.184 199.451C211.025 198.572 212.776 197.515 214.411 196.295C216.668 194.569 218.837 192.73 220.909 190.786C223.17 188.683 225.414 186.485 227.643 184.191C229.871 181.898 232.021 179.607 234.094 177.318C236.166 175.028 238.05 172.877 239.745 170.866C239.808 170.793 239.886 170.733 239.973 170.69C240.061 170.648 240.156 170.623 240.253 170.619C240.35 170.615 240.446 170.63 240.537 170.665C240.628 170.699 240.711 170.752 240.78 170.819C240.866 170.867 240.938 170.934 240.992 171.016C241.045 171.098 241.078 171.192 241.088 171.289C241.097 171.386 241.083 171.484 241.046 171.575C241.009 171.665 240.951 171.746 240.876 171.808C239.054 173.88 237.107 176.062 235.036 178.354C232.965 180.646 230.815 182.923 228.585 185.183C226.354 187.443 224.093 189.609 221.803 191.68C219.513 193.75 217.268 195.603 215.07 197.237C210.549 200.627 207.033 202.323 204.521 202.323C203.794 202.362 203.07 202.193 202.436 201.834C201.802 201.475 201.285 200.941 200.945 200.297C200.192 198.947 199.815 197.048 199.814 194.6C199.851 192.164 200.103 189.737 200.568 187.347C201.072 184.585 201.794 181.509 202.734 178.118C203.299 176.172 204.068 173.911 205.041 171.336C206.015 168.76 207.145 166.029 208.432 163.142C209.718 160.255 211.115 157.304 212.623 154.29C214.132 151.276 215.702 148.293 217.333 145.341C213.627 145.341 210.158 145.388 206.925 145.482C203.692 145.576 200.867 145.718 198.45 145.906C196.556 146.008 194.677 146.308 192.845 146.801C191.527 147.21 190.931 147.759 191.057 148.447C191.183 149.136 190.995 149.528 190.492 149.625C189.991 149.72 189.677 149.422 189.55 148.731C189.301 147.6 189.929 146.674 191.435 145.952C193.434 145.088 195.541 144.502 197.699 144.209C200.834 143.723 203.994 143.409 207.164 143.267C210.804 143.081 214.665 142.955 218.747 142.891C220.945 139.124 223.127 135.655 225.292 132.483C227.093 129.759 229.159 127.22 231.46 124.903C232.905 123.648 234.067 123.02 234.947 123.02C235.222 123.001 235.496 123.068 235.732 123.211C235.968 123.355 236.154 123.567 236.265 123.82C236.53 124.493 236.595 125.229 236.453 125.939C235.697 128.392 234.687 130.759 233.439 133.002C231.869 136.017 229.985 139.314 227.788 142.893H238.43C242.26 142.893 245.886 142.862 249.309 142.799C252.733 142.737 255.731 142.611 258.303 142.423C260.379 142.305 262.441 142.022 264.471 141.575C266.01 141.198 266.78 140.664 266.779 139.973C266.779 139.346 267.015 139.048 267.486 139.079C267.958 139.111 268.163 139.44 268.101 140.067C267.912 141.324 266.577 142.298 264.098 142.987C260.933 143.793 257.702 144.313 254.444 144.542C250.489 144.888 246.047 145.108 241.118 145.201C236.188 145.295 231.244 145.342 226.285 145.342C224.777 147.665 223.239 149.988 221.669 152.312C220.1 154.635 218.56 156.864 217.049 158.998C215.542 161.133 214.098 163.127 212.717 164.977C211.335 166.828 210.111 168.414 209.044 169.735ZM220.627 145.343C218.994 148.419 217.362 151.621 215.73 154.949C214.098 158.277 212.56 161.574 211.115 164.84C213.123 162.203 215.321 159.174 217.709 155.752C220.096 152.33 222.419 148.86 224.678 145.344L220.627 145.343ZM232.585 126.036C230.944 128.028 229.45 130.137 228.115 132.345C226.199 135.36 224.143 138.877 221.947 142.894H226.185C228.383 139.254 230.313 135.895 231.977 132.817C233.641 129.739 234.661 127.353 235.038 125.659C235.287 124.655 235.114 124.279 234.52 124.529C233.777 124.89 233.119 125.404 232.587 126.036H232.585Z" fill="white"/>
<path d="M205.245 170.866C205.305 170.793 205.38 170.734 205.466 170.693C205.551 170.652 205.645 170.631 205.739 170.631C205.834 170.631 205.928 170.652 206.013 170.693C206.099 170.734 206.174 170.793 206.234 170.866C206.312 170.915 206.378 170.983 206.425 171.062C206.472 171.142 206.499 171.232 206.503 171.325C206.508 171.417 206.49 171.51 206.451 171.594C206.413 171.678 206.354 171.752 206.281 171.808C204.775 173.253 203.032 174.823 201.054 176.517C199.075 178.212 197.004 179.877 194.839 181.512C192.673 183.145 190.522 184.698 188.388 186.172C186.253 187.647 184.276 188.886 182.454 189.892C180.006 191.211 178.059 191.871 176.615 191.871C174.606 191.871 173.601 190.709 173.601 188.386C173.618 186.961 173.857 185.547 174.307 184.195C174.808 182.643 175.39 181.118 176.05 179.627C176.742 178.058 177.526 176.456 178.404 174.821C179.282 173.186 180.129 171.616 180.947 170.112C181.269 169.664 181.687 169.294 182.171 169.028C182.621 168.765 183.116 168.589 183.632 168.511C184.023 168.445 184.424 168.46 184.809 168.556C185.122 168.65 185.217 168.824 185.089 169.075C184.523 170.205 183.755 171.68 182.782 173.501C181.81 175.322 180.852 177.206 179.908 179.152C178.967 181.099 178.151 182.967 177.46 184.756C176.86 186.143 176.509 187.626 176.425 189.135C176.425 190.077 176.864 190.485 177.743 190.359C178.622 190.233 179.972 189.668 181.793 188.665C183.549 187.662 185.496 186.437 187.632 184.991C189.769 183.545 191.903 182.007 194.035 180.378C196.169 178.745 198.21 177.096 200.158 175.432C202.106 173.768 203.802 172.246 205.245 170.866ZM187.069 164.272C186.784 164.573 186.398 164.757 185.985 164.79C185.593 164.826 185.2 164.744 184.855 164.554C184.683 164.461 184.531 164.333 184.41 164.179C184.288 164.026 184.199 163.849 184.149 163.66C184.04 163.125 184.14 162.569 184.428 162.105C184.549 161.827 184.723 161.576 184.941 161.365C185.159 161.155 185.417 160.99 185.699 160.88C186.149 160.695 186.65 160.678 187.111 160.833C187.319 160.916 187.507 161.044 187.661 161.207C187.815 161.369 187.933 161.563 188.006 161.775C188.093 162.052 188.113 162.346 188.064 162.632C188.016 162.918 187.9 163.189 187.726 163.422L187.069 164.272Z" fill="white"/>
<path d="M181.014 170.775C181.074 170.7 181.153 170.641 181.243 170.606C181.332 170.57 181.43 170.559 181.525 170.573C181.62 170.588 181.71 170.627 181.786 170.686C181.861 170.746 181.92 170.825 181.955 170.915C182.018 170.988 182.064 171.075 182.089 171.169C182.114 171.262 182.118 171.36 182.1 171.455C182.082 171.551 182.042 171.64 181.985 171.718C181.927 171.796 181.853 171.86 181.768 171.906C180.322 172.847 178.8 173.757 177.199 174.636C175.585 175.521 173.918 176.307 172.209 176.99C170.507 177.673 168.76 178.239 166.981 178.684C165.288 179.117 163.549 179.338 161.801 179.344C160.852 179.344 159.906 179.249 158.975 179.061C158.012 178.932 157.084 178.612 156.245 178.12C155.365 179.501 154.486 180.788 153.607 181.981C152.729 183.174 151.912 184.242 151.159 185.184C148.71 188.072 146.686 190.112 145.084 191.304C143.483 192.495 142.086 193.091 140.893 193.092C140.45 193.102 140.014 192.977 139.643 192.732C139.273 192.488 138.986 192.137 138.821 191.725C138.331 190.548 138.106 189.279 138.162 188.005C138.239 185.144 138.715 182.307 139.576 179.577C140.552 176.26 141.877 173.055 143.53 170.018C143.742 169.621 144.095 169.319 144.519 169.171C144.955 168.991 145.415 168.879 145.885 168.841C146.262 168.796 146.643 168.878 146.968 169.075C147.251 169.264 147.298 169.579 147.109 170.017C145.349 173.57 143.869 177.254 142.683 181.037C141.68 184.364 141.177 186.938 141.174 188.758C141.174 190.391 141.551 191.208 142.303 191.208C143.184 191.208 144.362 190.517 145.835 189.135C147.411 187.643 148.875 186.037 150.215 184.33C150.904 183.451 151.688 182.415 152.568 181.22C153.448 180.026 154.296 178.771 155.112 177.455C154.514 176.994 154.057 176.375 153.793 175.667C153.547 175.004 153.419 174.303 153.416 173.596C153.44 172.014 153.931 170.474 154.828 169.17C155.256 168.445 155.815 167.806 156.477 167.285C156.924 166.94 157.467 166.742 158.032 166.72C159.287 166.72 159.915 167.599 159.915 169.357C159.753 170.621 159.42 171.857 158.926 173.031C158.364 174.404 157.686 175.728 156.902 176.987C157.215 177.114 157.56 177.239 157.938 177.363C158.315 177.49 158.752 177.615 159.256 177.74C161.08 178.054 162.946 178.038 164.765 177.693C166.721 177.338 168.642 176.818 170.51 176.139C172.424 175.45 174.281 174.616 176.067 173.643C177.859 172.673 179.508 171.717 181.014 170.775ZM156.057 169.927C155.735 170.504 155.452 171.101 155.208 171.715C154.963 172.313 154.835 172.952 154.831 173.598C154.821 174.07 154.907 174.54 155.086 174.977C155.264 175.415 155.53 175.811 155.868 176.141C156.519 174.967 157.101 173.757 157.61 172.515C158.048 171.476 158.348 170.384 158.504 169.267C158.547 168.919 158.463 168.568 158.268 168.277C158.188 168.2 158.086 168.149 157.976 168.132C157.865 168.115 157.753 168.133 157.653 168.183C157.342 168.322 157.067 168.533 156.853 168.798C156.548 169.144 156.281 169.523 156.057 169.927H156.057Z" fill="white"/>
<path d="M143.566 170.679C143.618 170.595 143.686 170.522 143.766 170.464C143.847 170.407 143.938 170.366 144.034 170.344C144.131 170.322 144.231 170.319 144.328 170.336C144.426 170.353 144.519 170.389 144.602 170.443C144.978 170.663 145.009 170.961 144.696 171.337C143.816 172.343 142.482 173.897 140.693 175.999C138.905 178.101 136.943 180.409 134.807 182.921C132.671 185.432 130.521 187.928 128.357 190.41C126.193 192.891 124.262 195.009 122.564 196.766C118.42 201.099 115.374 203.265 113.428 203.265C112.11 203.265 111.451 202.198 111.451 200.064C111.524 198.198 111.825 196.348 112.345 194.555C112.941 192.26 113.867 189.419 115.122 186.031C115.5 185.152 115.845 184.336 116.159 183.582C116.472 182.828 116.818 182.027 117.195 181.179C117.571 180.331 117.994 179.389 118.466 178.353C118.938 177.318 119.518 176.078 120.207 174.634L120.821 173.408C121.041 172.971 121.246 172.594 121.436 172.279C120.818 172.631 120.234 173.041 119.694 173.504C119.098 174.006 118.548 174.509 118.045 175.013C116.788 176.27 115.423 177.761 113.948 179.487C112.474 181.213 111.077 182.893 109.757 184.526C108.188 186.41 106.65 188.356 105.142 190.364C104.863 190.426 104.574 190.426 104.295 190.364C104.166 190.33 104.046 190.271 103.94 190.19C103.835 190.109 103.746 190.008 103.68 189.893C103.495 189.513 103.414 189.092 103.444 188.67C103.476 187.904 103.602 187.145 103.821 186.41C103.883 186.221 104.181 185.373 104.715 183.866C105.248 182.36 105.892 180.649 106.645 178.733C107.398 176.82 108.135 174.936 108.857 173.083C109.579 171.23 110.16 169.864 110.6 168.986C110.791 168.827 111.016 168.714 111.259 168.656C111.566 168.564 111.881 168.501 112.201 168.47C112.471 168.433 112.746 168.465 113.001 168.562C113.104 168.602 113.192 168.674 113.251 168.767C113.311 168.86 113.339 168.97 113.331 169.08C112.944 170.9 112.392 172.681 111.683 174.401C110.709 177.009 109.281 180.635 107.398 185.28C109.973 182.266 111.982 179.927 113.425 178.262C114.868 176.596 116.124 175.231 117.193 174.165C119.764 171.53 121.616 170.212 122.749 170.21C123.44 170.21 123.816 170.697 123.88 171.671C123.943 172.645 123.629 174.01 122.938 175.766C121.932 177.964 121.084 179.88 120.395 181.513C120.081 182.204 119.783 182.91 119.501 183.632C119.219 184.354 118.953 184.966 118.701 185.468C118.483 186.077 118.231 186.674 117.947 187.256C116.503 190.52 115.373 193.283 114.557 195.544C113.741 197.805 113.333 199.469 113.332 200.536C113.332 201.792 113.976 202.074 115.262 201.383C116.549 200.693 118.668 198.84 121.62 195.826C122.563 194.82 123.536 193.753 124.54 192.625C125.544 191.496 126.831 190.037 128.401 188.246C129.969 186.455 131.948 184.164 134.335 181.372C136.723 178.581 139.8 175.017 143.566 170.679Z" fill="white"/>
<path d="M106.875 133.234C104.934 137.244 102.961 141.629 100.958 146.388C98.9541 151.147 96.8865 156.095 94.7548 161.233C92.6254 166.371 90.4326 171.601 88.1765 176.923C85.9204 182.246 83.5877 187.492 81.1785 192.662C78.7656 197.828 76.2753 202.807 73.7078 207.6C71.2764 212.165 68.6122 216.603 65.7257 220.896C64.2002 223.115 62.5531 225.247 60.792 227.284C59.0483 229.31 57.1316 231.181 55.0636 232.875C53.1281 234.47 50.9969 235.811 48.7217 236.867C46.6327 237.845 44.3562 238.358 42.0495 238.37C39.7247 238.337 37.4402 237.758 35.3801 236.68C35.2851 236.655 35.1976 236.607 35.1254 236.54C35.0532 236.473 34.9985 236.39 34.9659 236.297C34.9333 236.204 34.924 236.105 34.9386 236.008C34.9532 235.91 34.9914 235.818 35.0499 235.739C35.0822 235.643 35.1374 235.557 35.2106 235.487C35.2839 235.417 35.373 235.367 35.4703 235.339C35.5675 235.312 35.6701 235.308 35.769 235.329C35.8678 235.35 35.9601 235.395 36.0378 235.46C36.5118 235.76 37.015 236.012 37.5399 236.211C38.1379 236.426 38.7502 236.599 39.3723 236.728C40.1608 236.891 40.9644 236.97 41.7696 236.963C43.2205 236.931 44.6597 236.694 46.0445 236.26C47.9079 235.657 49.6667 234.769 51.2587 233.628C53.4255 232.087 55.4108 230.307 57.1765 228.319C59.5881 225.59 61.7282 222.633 63.5665 219.49C65.4456 216.356 67.4029 212.739 69.4385 208.638C71.474 204.536 73.5416 200.136 75.6413 195.437C77.7394 190.739 79.8377 185.854 81.9363 180.78C84.0348 175.707 86.1169 170.649 88.1826 165.607C90.251 160.566 92.2871 155.633 94.291 150.808C96.2949 145.984 98.2362 141.474 100.115 137.279C96.606 139.408 93.2237 141.507 89.968 143.574C86.8073 145.573 83.7649 147.753 80.8561 150.104C78.0789 152.351 75.4724 154.801 73.0579 157.434C70.6391 160.084 68.5273 162.999 66.7629 166.124C65.5016 168.333 64.4631 170.662 63.6626 173.076C62.8442 175.541 62.3387 178.098 62.1577 180.688C62.4579 180.523 62.8071 180.47 63.1428 180.538C63.4785 180.607 63.7789 180.793 63.9901 181.063C64.4552 181.614 64.7054 182.315 64.6947 183.036C64.7255 183.385 64.683 183.737 64.57 184.068C64.457 184.4 64.2761 184.704 64.0387 184.962C63.6658 185.342 63.1596 185.561 62.6277 185.573C62.3709 185.569 62.1176 185.514 61.8833 185.408C61.649 185.303 61.4387 185.152 61.2653 184.962C61.0418 184.697 60.873 184.39 60.7684 184.06C60.6639 183.729 60.6258 183.381 60.6562 183.036C60.7738 179.944 61.2945 176.881 62.2052 173.924C63.1045 170.998 64.3509 168.191 65.918 165.561C67.9112 162.151 70.2908 158.982 73.0098 156.117C75.6715 153.331 78.5457 150.755 81.6066 148.414C84.6554 146.077 87.821 143.895 91.0913 141.878C94.3484 139.876 97.6059 137.871 100.864 135.865C103.395 130.224 106.364 124.79 109.742 119.611C112.248 115.761 115.076 112.13 118.196 108.759C120.86 105.973 123.303 103.953 125.526 102.699C127.75 101.445 129.581 100.819 131.021 100.82C133.213 100.82 134.31 101.979 134.311 104.296C134.311 105.612 133.841 107.256 132.901 109.229C131.688 111.607 130.172 113.817 128.392 115.806C125.916 118.62 123.231 121.243 120.359 123.651C116.55 126.849 112.516 129.769 108.289 132.389L106.875 133.234ZM107.723 131.543C111.807 128.961 115.701 126.088 119.373 122.946C122.161 120.561 124.781 117.987 127.216 115.242C128.944 113.335 130.427 111.221 131.631 108.946C132.537 107.1 132.992 105.644 132.993 104.579C132.993 103.2 132.398 102.511 131.208 102.511C130.269 102.511 129 103.044 127.402 104.11C125.37 105.57 123.525 107.274 121.907 109.182C119.45 112.019 117.205 115.034 115.192 118.201C112.42 122.534 109.895 127.019 107.629 131.637C107.642 131.639 107.655 131.637 107.667 131.633C107.68 131.629 107.691 131.622 107.7 131.612C107.709 131.603 107.716 131.592 107.72 131.579C107.724 131.566 107.725 131.553 107.723 131.54V131.543Z" fill="white"/>
<path d="M431.217 65.6C431.373 65.6026 431.525 65.6538 431.651 65.7464C431.777 65.8389 431.872 65.9684 431.921 66.1169C431.963 66.1838 431.99 66.2587 432.001 66.3367C432.011 66.4147 432.005 66.4941 431.983 66.5696C431.961 66.6452 431.923 66.7152 431.872 66.7751C431.821 66.835 431.758 66.8834 431.687 66.9172C428.805 68.9215 426.018 70.7062 423.324 72.2713C420.631 73.8364 418 75.3079 415.432 76.686C412.865 78.0644 410.344 79.3797 407.869 80.6318C405.395 81.884 402.937 83.1367 400.493 84.3899C398.679 88.3982 396.692 92.611 394.531 97.0283C392.371 101.446 390.115 105.799 387.765 110.088C385.418 114.377 382.991 118.464 380.484 122.349C378.206 125.924 375.696 129.345 372.968 132.59C370.786 135.229 368.294 137.595 365.546 139.638C363.103 141.389 360.754 142.265 358.499 142.267C357.66 142.307 356.824 142.149 356.057 141.806C355.29 141.464 354.615 140.946 354.085 140.294C353.018 138.979 352.485 137.131 352.486 134.751C352.486 131.746 353.473 128.05 355.448 123.664C357.422 119.278 360.725 114.455 365.358 109.195C367.957 106.226 370.718 103.403 373.628 100.739C376.323 98.2961 378.969 96.0882 381.567 94.1152C384.166 92.1421 386.734 90.3725 389.272 88.8063C391.81 87.2416 394.394 85.77 397.023 84.3916C398.089 81.9488 399.107 79.6468 400.076 77.4857C401.046 75.3245 401.907 73.3358 402.661 71.5197C401.944 72.542 401.159 73.5151 400.311 74.4322C399.37 75.6871 398.264 76.8091 397.022 77.7679C396.325 78.3337 395.474 78.6773 394.58 78.7542C394.305 78.7721 394.03 78.7109 393.789 78.5777C393.547 78.4445 393.349 78.2449 393.217 78.0026C392.911 77.3915 392.766 76.7124 392.794 76.0294C392.817 74.6816 393.122 73.3534 393.689 72.1305C394.279 70.7922 395.054 69.543 395.99 68.4193C396.92 67.3008 398.032 66.3478 399.28 65.6006C400.435 64.8768 401.768 64.4865 403.131 64.4729C403.903 64.4434 404.662 64.6758 405.285 65.1323C405.346 65.0708 405.379 65.0205 405.379 64.9915C405.379 64.9624 405.41 64.9132 405.473 64.8507C405.713 64.3603 406.11 63.9638 406.6 63.7235C407.065 63.4823 407.58 63.3535 408.104 63.3474C408.539 63.3475 408.965 63.4785 409.325 63.7235C408.573 65.5415 407.54 68.0469 406.225 71.2397C404.91 74.4324 403.345 78.0346 401.531 82.0462C405.976 79.7286 410.627 77.3322 415.482 74.857C420.89 72.057 426.142 68.9669 431.217 65.6ZM358.121 140.671C359.939 140.671 361.881 139.873 363.946 138.276C366.319 136.37 368.464 134.194 370.336 131.794C372.742 128.769 374.985 125.616 377.052 122.35C379.34 118.78 381.579 114.99 383.77 110.981C385.96 106.972 388.09 102.901 390.159 98.7679C392.225 94.6326 394.136 90.6547 395.89 86.8342C393.447 88.1512 391.004 89.5762 388.561 91.1092C386.119 92.6423 383.675 94.3335 381.232 96.1828C378.789 98.0292 376.33 100.081 373.855 102.337C371.204 104.774 368.68 107.345 366.293 110.042C361.909 114.988 358.746 119.623 356.804 123.947C354.863 128.27 353.891 131.872 353.89 134.752C353.812 136.268 354.189 137.773 354.971 139.074C355.312 139.591 355.782 140.01 356.334 140.29C356.886 140.57 357.502 140.701 358.121 140.671ZM395.138 77.3448C395.641 77.3448 396.361 76.8751 397.299 75.9355C398.237 74.9959 399.193 73.9312 400.166 72.7412C401.135 71.5513 402.058 70.3778 402.936 69.2207C403.814 68.0635 404.41 67.2337 404.722 66.7311V66.5433C404.622 66.4168 404.493 66.3165 404.345 66.2511C404.198 66.1857 404.037 66.1571 403.876 66.1678C403.062 66.1678 402.123 66.5906 401.059 67.4363C399.942 68.3345 398.933 69.3591 398.051 70.4897C397.162 71.6057 396.376 72.8008 395.704 74.0601C395.182 74.9167 394.861 75.8803 394.765 76.8788C394.763 77.1878 394.889 77.3443 395.138 77.3443V77.3448Z" fill="white"/>
<path d="M399.046 66.2097C399.097 66.1255 399.165 66.0525 399.246 65.995C399.326 65.9375 399.417 65.8966 399.513 65.8747C399.609 65.8528 399.709 65.8504 399.806 65.8676C399.903 65.8849 399.996 65.9214 400.079 65.975C400.456 66.1957 400.486 66.4919 400.173 66.8691C399.294 67.8712 397.964 69.4213 396.181 71.5195C394.399 73.6176 392.441 75.9199 390.309 78.4264C388.178 80.9302 386.033 83.4199 383.872 85.8954C381.712 88.3709 379.786 90.4842 378.095 92.2351C373.96 96.5566 370.922 98.7173 368.981 98.7173C367.667 98.7173 367.01 97.6526 367.009 95.5232C367.083 93.6615 367.384 91.8158 367.903 90.0267C368.497 87.7389 369.421 84.9046 370.675 81.5238C371.048 80.6469 371.392 79.8327 371.707 79.0813C372.023 78.3299 372.367 77.5311 372.741 76.6851C373.118 75.8394 373.542 74.8999 374.011 73.8665C374.48 72.833 375.059 71.596 375.748 70.1554C375.934 69.7795 376.138 69.3729 376.359 68.9355C376.58 68.4982 376.784 68.1223 376.973 67.8079C376.356 68.1575 375.773 68.566 375.234 69.0277C374.638 69.5288 374.09 70.0304 373.591 70.5326C372.337 71.784 370.975 73.2712 369.504 74.9942C368.033 76.7171 366.639 78.3936 365.322 80.0234C363.757 81.901 362.223 83.8424 360.719 85.8474C360.44 85.9088 360.151 85.9088 359.872 85.8474C359.615 85.7771 359.395 85.6083 359.261 85.3774C359.078 84.9978 358.997 84.5766 359.027 84.1559C359.059 83.3917 359.185 82.6344 359.403 81.9011C359.467 81.7148 359.765 80.8691 360.297 79.3641C360.829 77.859 361.47 76.1522 362.221 74.2437C362.974 72.3333 363.71 70.4542 364.429 68.6064C365.148 66.7586 365.728 65.3962 366.169 64.5193C366.359 64.3592 366.584 64.2469 366.826 64.1918C367.132 64.0985 367.447 64.035 367.765 64.0024C368.035 63.9657 368.309 63.998 368.563 64.0962C368.666 64.1362 368.753 64.2079 368.812 64.3009C368.871 64.3938 368.899 64.5032 368.892 64.6131C368.506 66.4289 367.957 68.2058 367.249 69.9218C366.277 72.5214 364.852 76.1386 362.974 80.7734C365.542 77.7685 367.546 75.4352 368.986 73.7737C370.426 72.1122 371.678 70.7496 372.741 69.686C375.309 67.0551 377.158 65.7399 378.286 65.7403C378.974 65.7403 379.35 66.2257 379.414 67.1965C379.478 68.1674 379.164 69.5297 378.473 71.2837C377.471 73.4772 376.625 75.3876 375.936 77.0148C375.621 77.7051 375.323 78.4103 375.042 79.1305C374.763 79.8508 374.493 80.4599 374.245 80.9611C374.027 81.5699 373.776 82.166 373.491 82.7465C372.051 86.0037 370.923 88.7604 370.109 91.0169C369.295 93.2734 368.887 94.9332 368.887 95.9965C368.887 97.2493 369.529 97.5312 370.814 96.842C372.098 96.1528 374.212 94.3042 377.156 91.2963C378.096 90.2905 379.066 89.2252 380.067 88.1005C381.068 86.9758 382.352 85.5195 383.918 83.7317C385.482 81.9465 387.456 79.6602 389.838 76.8729C392.221 74.0855 395.29 70.5311 399.046 66.2097Z" fill="white"/>
<path d="M365.481 66.3967C365.541 66.3236 365.616 66.2647 365.701 66.2243C365.787 66.1838 365.88 66.1629 365.975 66.1629C366.069 66.1629 366.163 66.1838 366.248 66.2243C366.333 66.2647 366.409 66.3236 366.469 66.3967C366.547 66.4456 366.613 66.5127 366.659 66.5924C366.706 66.672 366.733 66.7618 366.738 66.8541C366.742 66.9464 366.725 67.0384 366.686 67.1223C366.647 67.2063 366.589 67.2796 366.516 67.3361C365.012 68.7782 363.274 70.3441 361.301 72.034C359.328 73.7238 357.261 75.3837 355.099 77.0135C352.938 78.6449 350.793 80.1956 348.664 81.6656C346.536 83.1357 344.563 84.3723 342.745 85.3756C340.302 86.6921 338.361 87.3502 336.92 87.3498C334.916 87.3498 333.914 86.1911 333.914 83.8735C333.931 82.4518 334.169 81.0414 334.618 79.6925C335.117 78.1444 335.697 76.6234 336.355 75.1359C337.047 73.5713 337.83 71.974 338.705 70.3441C339.58 68.7143 340.426 67.1483 341.242 65.6462C341.564 65.1996 341.98 64.83 342.462 64.5644C342.911 64.302 343.406 64.1272 343.92 64.0491C344.31 63.9828 344.71 63.9988 345.094 64.0961C345.407 64.19 345.499 64.3637 345.373 64.6113C344.811 65.7386 344.044 67.2101 343.072 69.0259C342.101 70.8417 341.145 72.7208 340.205 74.6632C339.266 76.6049 338.452 78.4676 337.764 80.2513C337.165 81.6354 336.815 83.1143 336.731 84.6201C336.731 85.5596 337.169 85.9662 338.046 85.8399C338.923 85.7136 340.27 85.1504 342.086 84.1501C343.837 83.1495 345.779 81.9281 347.911 80.486C350.044 79.0439 352.173 77.5088 354.3 75.8808C356.428 74.2536 358.464 72.6094 360.407 70.9482C362.35 69.287 364.042 67.7699 365.481 66.3967ZM347.349 59.8201C347.065 60.1204 346.679 60.3046 346.267 60.337C345.876 60.3725 345.484 60.2908 345.14 60.1023C344.968 60.0088 344.817 59.8814 344.696 59.7276C344.575 59.5739 344.487 59.3972 344.437 59.2082C344.329 58.6751 344.429 58.121 344.716 57.6591C344.836 57.3817 345.011 57.1308 345.229 56.921C345.447 56.7112 345.704 56.5465 345.986 56.4365C346.434 56.2517 346.935 56.2354 347.395 56.3906C347.602 56.4745 347.789 56.6016 347.943 56.7636C348.098 56.9257 348.215 57.1188 348.289 57.33C348.376 57.6064 348.396 57.8995 348.347 58.1851C348.299 58.4707 348.183 58.7407 348.01 58.9729L347.349 59.8201Z" fill="white"/>
<path d="M313.725 66.3762C310.819 74.6602 307.404 84.3972 307.404 89.8636C307.404 92.5113 308.174 94.1341 310.31 94.1341C318.764 94.1341 336.956 72.3534 341.91 65.9487C341.997 65.8385 342.116 65.7584 342.251 65.7196C342.386 65.6808 342.529 65.6853 342.662 65.7324C342.794 65.7796 342.908 65.867 342.988 65.9824C343.068 66.0978 343.109 66.2353 343.107 66.3757C336.272 74.9173 325.001 87.9837 315.944 93.4507C313.298 94.9869 311.25 95.6715 309.711 95.6715C307.063 95.6715 305.441 93.1093 305.441 89.0947C305.441 84.4821 307.148 77.4784 309.625 70.1327C308.771 71.2447 307.831 72.3534 306.892 73.4638C304.586 76.2836 302.877 77.3929 301.682 77.3929C300.657 77.3929 300.061 76.368 300.061 74.9173C300.061 70.3908 304.675 64.4114 309.542 64.4114C310.221 64.3723 310.89 64.5852 311.421 65.0093C314.667 56.2973 318.51 47.6702 321.5 42.2037C332.176 23.1562 340.887 16.1525 345.499 16.1525C347.805 16.1525 349.087 17.8619 349.087 20.6789C349.087 23.0707 348.147 26.2292 346.268 29.8185C339.008 42.629 325.257 54.5018 313.898 65.947C313.809 66.1197 313.809 66.2052 313.725 66.3762ZM310.906 66.46C310.906 66.3762 310.906 66.3762 310.992 66.289C310.883 66.1738 310.75 66.0836 310.602 66.0249C310.455 65.9661 310.296 65.9401 310.137 65.9487C307.148 65.9487 301.938 73.2073 301.938 75.6857C301.938 75.9405 302.024 76.1126 302.195 76.1126C303.988 76.1132 309.796 68.1684 310.906 66.46ZM315.006 63.0451C325.852 52.2827 339.348 40.0685 345.155 29.2222C347.035 25.8056 347.888 22.8165 347.888 20.7661C347.888 18.7158 347.035 17.4333 345.497 17.4333C336.017 17.4338 320.473 49.293 315.006 63.0445V63.0451Z" fill="white"/>
<path d="M274.822 65.8353C274.779 65.9078 274.747 65.9866 274.729 66.0689C274.709 66.1519 274.676 66.2315 274.633 66.3053C273.819 68.5603 273.005 70.893 272.192 73.3034C271.379 75.7138 270.643 78.0631 269.984 80.3513C269.327 82.6376 268.779 84.7984 268.34 86.8337C267.936 88.5755 267.716 90.3548 267.682 92.1425C267.626 93.3266 267.869 94.5059 268.387 95.572C268.638 95.9986 269.006 96.3445 269.447 96.5692C269.888 96.794 270.384 96.8881 270.877 96.8405C272.442 96.8405 274.258 96.2456 276.327 95.0556C278.621 93.7015 280.79 92.1455 282.809 90.4062C285.064 88.4943 287.35 86.3643 289.668 84.0161C291.985 81.6679 294.177 79.3341 296.243 77.0146C298.309 74.6984 300.158 72.5531 301.787 70.5786C303.417 68.6041 304.7 67.023 305.638 65.8353C305.708 65.7533 305.795 65.6863 305.891 65.6383C305.988 65.5903 306.094 65.5623 306.202 65.5559C306.304 65.5414 306.408 65.5509 306.506 65.5836C306.603 65.6162 306.692 65.6712 306.765 65.7441C306.838 65.817 306.893 65.9058 306.926 66.0036C306.958 66.1014 306.968 66.2054 306.953 66.3075C305.074 68.6877 302.929 71.2866 300.517 74.1042C298.106 76.9218 295.585 79.7092 292.956 82.4664C290.325 85.2233 287.648 87.8075 284.923 90.219C282.491 92.4106 279.865 94.3761 277.076 96.0911C274.259 97.7184 271.974 98.5327 270.219 98.5338C269.524 98.5411 268.839 98.362 268.235 98.015C267.632 97.668 267.133 97.1658 266.79 96.5606C265.944 95.2451 265.521 93.4913 265.52 91.2992C265.595 88.1605 266.021 85.04 266.79 81.9959C267.634 78.3658 268.746 74.5136 270.125 70.4394C269.623 71.0672 269.122 71.678 268.622 72.2718C268.123 72.8657 267.621 73.4765 267.117 74.1042C266.178 75.3596 265.072 76.4818 263.83 77.4398C263.133 78.0056 262.282 78.3497 261.388 78.4278C261.121 78.4335 260.857 78.3664 260.626 78.2337C260.394 78.101 260.203 77.9077 260.072 77.6745C259.734 77.074 259.571 76.3901 259.603 75.7013C259.625 74.3535 259.929 73.0252 260.497 71.8024C261.091 70.4566 261.882 69.2064 262.844 68.0924C263.798 66.9798 264.924 66.0277 266.18 65.2726C267.336 64.5494 268.668 64.1592 270.031 64.1448C270.778 64.1029 271.513 64.337 272.099 64.8026C272.976 62.4224 273.9 60.0583 274.871 57.7105C275.843 55.3627 276.798 53.1079 277.735 50.946C278.675 48.7852 279.615 46.749 280.555 44.8375C281.495 42.9259 282.372 41.2195 283.184 39.7181C285.715 35.1144 288.506 30.6594 291.546 26.375C293.758 23.2472 296.209 20.2953 298.876 17.5456C300.688 15.6428 302.74 13.985 304.982 12.6146C306.798 11.5811 308.333 11.0638 309.585 11.0627C310.14 11.0346 310.694 11.1394 311.201 11.3684C311.707 11.5974 312.152 11.9439 312.498 12.3793C313.245 13.4491 313.609 14.7398 313.531 16.0424C313.531 18.8011 312.498 22.1526 310.431 26.0967C308.324 29.7482 305.92 33.2191 303.241 36.4741C300.454 39.8878 297.479 43.2383 294.317 46.5257C291.155 49.813 287.897 53.0706 284.544 56.2984C281.194 59.5243 277.953 62.7033 274.822 65.8353ZM261.95 77.0118C262.453 77.0118 263.173 76.542 264.113 75.6024C265.052 74.6628 266.023 73.5981 267.025 72.4082C268.026 71.2194 268.949 70.0458 269.795 68.8876C270.641 67.7293 271.221 66.8995 271.535 66.398C271.54 66.3256 271.573 66.2581 271.628 66.2103C271.505 66.0873 271.358 65.9906 271.197 65.9262C271.036 65.8618 270.863 65.8311 270.689 65.8359C269.874 65.8359 268.95 66.2581 267.918 67.1027C266.823 68.0104 265.83 69.0342 264.956 70.1561C264.066 71.2724 263.279 72.4675 262.606 73.7264C262.085 74.5835 261.764 75.547 261.666 76.5452C261.666 76.8592 261.762 77.0146 261.95 77.0146V77.0118ZM309.584 12.4676C307.829 12.4676 305.934 13.3597 303.9 15.1438C301.569 17.2566 299.459 19.6021 297.605 22.1436C295.279 25.2784 293.131 28.5415 291.171 31.9175C289.041 35.5506 287.021 39.2144 285.111 42.909C283.201 46.6035 281.463 50.1899 279.897 53.668C278.33 57.1431 277.046 60.1342 276.045 62.641C279.051 59.6957 282.167 56.6573 285.392 53.5261C288.617 50.3948 291.734 47.2467 294.742 44.0819C297.749 40.9216 300.504 37.7745 303.009 34.6406C305.345 31.7607 307.421 28.679 309.211 25.4317C310.174 23.7869 310.946 22.0379 311.513 20.2185C311.937 18.8952 312.175 17.5191 312.218 16.1301C312.266 15.1923 312.037 14.2609 311.56 13.4522C311.345 13.13 311.05 12.8697 310.703 12.6974C310.357 12.5251 309.971 12.4468 309.584 12.4704V12.4676Z" fill="white"/>
<path d="M265.154 66.0716C265.591 65.6944 265.953 65.6804 266.235 66.0246C266.302 66.0896 266.354 66.1682 266.388 66.255C266.423 66.3419 266.438 66.4351 266.434 66.5283C266.429 66.6216 266.405 66.7129 266.363 66.7961C266.32 66.8793 266.26 66.9525 266.188 67.0109C264.496 68.5141 262.445 70.2209 260.033 72.1313C257.622 74.0417 255.148 75.9208 252.611 77.7686C250.075 79.6149 247.632 81.3369 245.283 82.9348C243.336 84.2875 241.313 85.5271 239.223 86.6475C238.173 87.1924 237.071 87.6329 235.935 87.9629C235.109 88.196 234.256 88.3219 233.398 88.3373C231.771 88.3373 230.581 87.805 229.828 86.7403C229.029 85.5135 228.635 84.0674 228.7 82.6051C228.72 81.0293 228.957 79.4638 229.405 77.953C229.911 76.1985 230.556 74.4868 231.331 72.8337C232.154 71.1283 233.063 69.4663 234.056 67.8542C235.079 66.2001 236.31 64.6844 237.72 63.3446C238.558 62.4548 239.524 61.6948 240.586 61.0898C241.29 60.6902 242.079 60.4647 242.887 60.432C243.269 60.4086 243.65 60.4825 243.995 60.6468C244.34 60.8112 244.638 61.0605 244.861 61.3714C245.312 62.0361 245.543 62.8259 245.521 63.629C245.519 64.5763 245.293 65.5098 244.863 66.3538C244.063 67.9113 242.729 69.1283 241.105 69.7815C239.465 70.4422 237.704 70.747 235.938 70.6756C235.624 71.2407 235.326 71.8206 235.043 72.4152C234.761 73.0097 234.495 73.589 234.246 74.1531C233.45 75.9432 232.76 77.7785 232.178 79.6495C231.73 80.9998 231.476 82.407 231.425 83.8289C231.425 85.8346 232.271 86.8373 233.963 86.8369C234.645 86.8205 235.323 86.7254 235.983 86.5536C236.912 86.3104 237.81 85.9642 238.661 85.5215C240.766 84.4461 242.791 83.2216 244.721 81.8574C247.195 80.1649 249.732 78.3324 252.332 76.3598C254.931 74.3872 257.405 72.4617 259.754 70.5834C262.101 68.7013 263.901 67.1974 265.154 66.0716ZM239.505 64.9439C238.463 66.315 237.521 67.7593 236.686 69.2657C237.963 69.2513 239.23 69.0441 240.444 68.651C241.76 68.2453 242.762 67.2581 243.451 65.6893C243.756 65.0936 243.917 64.4343 243.921 63.7648C243.945 63.5099 243.916 63.2526 243.835 63.0097C243.754 62.7667 243.623 62.5435 243.451 62.3543C243.136 62.0749 242.652 62.1068 241.994 62.4499C241.009 63.1098 240.163 63.9572 239.505 64.9439Z" fill="white"/>
<path d="M236.669 1.28609C236.675 1.18942 236.701 1.09507 236.746 1.00887C236.79 0.922679 236.851 0.846469 236.926 0.784972C237.001 0.723476 237.088 0.677997 237.181 0.651346C237.274 0.624694 237.372 0.617438 237.468 0.630029C237.938 0.630029 238.138 0.880388 238.078 1.37998C237.776 5.08018 237.211 8.7542 236.387 12.3743C235.448 16.7588 234.242 21.5187 232.77 26.6539C231.298 31.7891 229.575 37.098 227.601 42.5804C225.63 48.0614 223.516 53.3385 221.261 58.4119C217.275 67.5115 212.709 76.3458 207.591 84.8605C202.466 93.3735 196.669 101.464 190.257 109.054C189.003 110.619 187.296 112.623 185.136 115.067C182.913 117.57 180.543 119.939 178.039 122.161C175.594 124.356 172.953 126.321 170.149 128.033C167.457 129.661 164.921 130.475 162.54 130.475C160.708 130.535 158.917 129.916 157.514 128.737C156.087 127.467 154.963 125.894 154.225 124.133C153.315 121.999 152.684 119.757 152.346 117.462C151.929 114.835 151.694 112.183 151.641 109.523C151.512 104.498 151.794 99.47 152.487 94.4907C153.174 89.541 154.051 84.6234 155.116 79.7377C156.118 75.2265 157.074 71.4679 157.983 68.4618C158.892 65.4557 159.597 63.1068 160.097 61.415C158.467 64.0471 156.682 66.741 154.742 69.4967C152.802 72.2525 150.719 74.9458 148.494 77.5768C146.289 80.1841 143.953 82.6771 141.494 85.046C139.198 87.2747 136.715 89.3021 134.072 91.1059C132.606 92.1383 131.03 93.005 129.373 93.6899C128.211 94.1762 126.969 94.4468 125.71 94.4885C124.808 94.535 123.913 94.3148 123.135 93.8552C122.358 93.3956 121.733 92.7171 121.34 91.9044C120.431 90.1807 120.009 87.6909 120.073 84.4352C120.15 81.9732 120.433 79.5219 120.918 77.1068C121.418 74.5388 122.029 71.9546 122.751 69.3542C123.473 66.7538 124.255 64.2175 125.098 61.7453C125.943 59.2712 126.804 56.9379 127.68 54.7454C130.24 48.4918 133.158 42.3906 136.419 36.4719C139.589 30.6667 143.07 25.0369 146.848 19.6071C145.093 19.983 143.057 20.3114 140.741 20.5923C138.425 20.8732 135.95 21.1087 133.317 21.2987C130.688 21.485 127.964 21.6573 125.145 21.8156C122.326 21.9739 119.538 22.1457 116.782 22.3308C109.578 22.7708 102.375 23.162 95.1733 23.5044C87.9717 23.8468 80.7687 24.3327 73.5641 24.9624C68.8664 25.3349 63.6989 25.8354 58.0616 26.4639C52.4243 27.0924 46.7871 27.9698 41.1498 29.096C35.651 30.1853 30.2358 31.6605 24.9443 33.5107C20.168 35.125 15.6564 37.4363 11.5558 40.3697C8.99712 42.2404 6.78649 44.5455 5.02439 47.1801C3.20244 49.8401 1.99948 52.8745 1.50388 56.0604C1.81808 55.9255 2.16809 55.8985 2.49927 55.9835C2.83045 56.0685 3.12415 56.2608 3.33454 56.5303C3.78948 57.0508 4.04042 57.7184 4.04088 58.4097C4.0542 59.0582 3.83786 59.6906 3.4301 60.1951C3.26261 60.4251 3.04374 60.6128 2.79092 60.7433C2.53811 60.8737 2.25832 60.9434 1.97384 60.9467C1.65778 60.96 1.3451 60.8774 1.07684 60.7097C0.808571 60.5421 0.59726 60.2972 0.470643 60.0073C0.122129 59.2087 -0.0386448 58.3408 0.000681535 57.4703C0.0330154 56.1187 0.238279 54.7769 0.611462 53.4775C1.06933 51.8122 1.71558 50.2045 2.53768 48.6856C3.47767 46.9314 4.59538 45.2785 5.87322 43.7528C7.29324 42.0551 8.91859 40.5402 10.712 39.2431C14.9119 36.2586 19.5147 33.886 24.3821 32.1963C29.7186 30.2884 35.1803 28.751 40.7284 27.595C46.397 26.4077 52.0659 25.4837 57.7353 24.8232C63.4046 24.1627 68.619 23.615 73.3786 23.1803C80.6431 22.554 87.8775 22.0216 95.0816 21.5831C102.286 21.1447 109.489 20.7688 116.691 20.4554C124.268 20.078 130.579 19.7487 135.622 19.4674C139.844 19.2973 144.042 18.747 148.165 17.8234C148.664 17.0716 149.291 16.1951 150.044 15.1941C150.797 14.1931 151.596 13.1903 152.44 12.186C153.285 11.1853 154.131 10.2457 154.977 9.36725C155.7 8.59571 156.502 7.90265 157.371 7.2996C158.561 6.86111 159.266 7.04906 159.486 7.86345C159.706 8.67784 159.518 9.72694 158.922 11.0107C158.183 12.498 157.216 13.8606 156.057 15.0494C154.72 16.4731 153.083 17.5804 151.264 18.2906C147.38 24.368 143.748 30.7261 140.367 37.3649C136.986 44.0037 134.105 50.33 131.723 56.3437C130.908 58.4132 129.983 60.7627 128.95 63.3921C127.917 66.0216 126.929 68.7149 125.988 71.4722C125.057 74.2 124.273 76.9762 123.641 79.7886C123.039 82.3604 122.723 84.991 122.7 87.6322C122.7 91.2639 123.922 93.0798 126.366 93.0802C128.117 93.0802 130.466 92.1097 133.413 90.1688C136.023 88.3257 138.474 86.2674 140.741 84.0155C143.718 81.1101 146.526 78.0358 149.15 74.8078C152.094 71.2025 154.839 67.4386 157.371 63.533C159.94 59.6101 162.172 55.4768 164.043 51.1774C164.294 50.6763 164.639 50.5353 165.078 50.7543C165.518 50.9734 165.611 51.3336 165.358 51.8351C164.483 53.8658 163.746 55.9526 163.15 58.0816C162.428 60.5587 161.77 63.1429 161.177 65.8342C160.583 68.5255 160.05 71.1562 159.58 73.7265C159.11 76.2944 158.719 78.518 158.406 80.3972C157.716 85.2828 157.074 90.1371 156.48 94.9601C155.886 99.7831 155.526 104.637 155.399 109.523C155.335 111.966 155.382 114.33 155.54 116.617C155.66 118.703 156.023 120.769 156.621 122.771C157.075 124.391 157.895 125.886 159.016 127.14C159.542 127.688 160.178 128.118 160.883 128.401C161.588 128.685 162.345 128.815 163.103 128.784C165.232 128.784 167.565 128.017 170.103 126.482C172.744 124.869 175.229 123.013 177.525 120.939C179.894 118.818 182.152 116.575 184.29 114.221C186.386 111.902 188.093 109.929 189.41 108.302C193.357 103.498 197.057 98.4956 200.495 93.3149C203.879 88.211 206.87 83.3723 209.469 78.7989C212.068 74.2255 214.244 70.1072 215.999 66.4439C217.75 62.7795 219.065 59.9138 219.944 57.8469C221.009 55.4682 222.136 52.7592 223.325 49.7199C224.514 46.6807 225.705 43.4866 226.897 40.1378C228.086 36.7848 229.228 33.3388 230.325 29.7995C231.421 26.2603 232.424 22.7995 233.333 19.4171C234.24 16.0348 234.976 12.7936 235.541 9.6936C236.063 6.91259 236.439 4.10629 236.669 1.28609ZM157.653 9.55669C156.711 10.5367 155.847 11.589 155.069 12.704C154.097 14.0508 153.33 15.1621 152.768 16.0379C154.096 15.369 155.241 14.3859 156.103 13.174C156.799 12.0526 157.322 10.8328 157.654 9.55557L157.653 9.55669Z" fill="white"/>
</svg>
