<svg width="62" height="27" viewBox="0 0 62 27" fill="none" xmlns="http://www.w3.org/2000/svg">
<path d="M56.2015 10.0689C53.9059 10.0689 49.3403 12.4918 48.2603 13.0787L30.771 0.579956L13.7657 13.0613C12.7238 12.4918 8.1119 10.0435 5.79899 10.0435C3.0948 10.0435 0.901123 11.6166 0.901123 13.5545C0.901123 15.4923 3.09017 17.0644 5.80014 17.0644C8.07022 17.0644 12.6023 14.6832 13.7159 14.0627L30.771 26.58L48.2603 14.0777C49.3403 14.6727 53.9059 17.0875 56.2015 17.0875C58.9057 17.0875 61.0982 15.5143 61.0982 13.5765C61.0982 11.6386 58.9045 10.0689 56.2015 10.0689ZM5.78278 16.2158C3.54627 16.2158 1.73113 15.0166 1.73113 13.5533C1.73113 12.0901 3.54164 10.8908 5.78278 10.8908C7.61875 10.8908 11.3266 12.7361 12.8651 13.5533C11.3266 14.3637 7.61875 16.2158 5.78278 16.2158ZM14.5147 13.6147L14.6304 13.5556H14.5714L30.778 1.65307L47.4476 13.5556H47.3712L47.4476 13.5985L30.778 25.5011L14.5147 13.6147ZM56.176 16.2413C54.34 16.2413 50.6322 14.3961 49.1018 13.5788C50.6322 12.7685 54.3389 10.9163 56.176 10.9163C58.4033 10.9163 60.2277 12.1156 60.2277 13.5788C60.2277 15.042 58.4334 16.2413 56.2061 16.2413H56.176Z" fill="#505050"/>
</svg>
