<svg width="48" height="17" viewBox="0 0 48 17" fill="none" xmlns="http://www.w3.org/2000/svg">
<g opacity="0.6">
<path d="M11.1749 2.67482L11.5825 2.2673L11.1668 1.86808C10.1399 0.881706 8.75561 0.121094 6.82962 0.121094C3.35503 0.121094 0.42627 2.94912 0.42627 6.44398C0.42627 9.93891 3.35503 12.7669 6.82962 12.7669C8.69009 12.7669 10.1256 12.1502 11.2527 10.9836C12.4347 9.79906 12.7752 8.1698 12.7752 6.9079C12.7752 6.51387 12.7421 6.13566 12.6777 5.81371L12.5869 5.35967H6.26479V8.06647H9.90236C9.77252 8.51577 9.57694 8.84111 9.33821 9.08022C8.86466 9.5482 8.14657 10.0663 6.82962 10.0663C4.83205 10.0663 3.26294 8.46132 3.26294 6.44398C3.26294 4.42671 4.83205 2.8217 6.82962 2.8217C7.91123 2.8217 8.6937 3.24396 9.28248 3.79493L9.68147 4.16827L10.0678 3.78191L11.1749 2.67482Z" fill="white" stroke="white" stroke-width="1.12966"/>
<path d="M16.7439 12.7607C19.0703 12.7607 20.964 10.9388 20.964 8.49124C20.964 6.03002 19.0691 4.22168 16.7439 4.22168C14.4189 4.22168 12.5239 6.03002 12.5239 8.49124C12.5239 10.9388 14.4176 12.7607 16.7439 12.7607ZM16.7439 6.81092C17.5076 6.81092 18.2325 7.44126 18.2325 8.49124C18.2325 9.5309 17.5056 10.1715 16.7439 10.1715C15.9834 10.1715 15.2554 9.52578 15.2554 8.49124C15.2554 7.44639 15.9813 6.81092 16.7439 6.81092Z" fill="white" stroke="white" stroke-width="1.12966"/>
<path d="M24.9418 10.1715H24.9387C24.1781 10.1715 23.4501 9.52578 23.4501 8.49124C23.4501 7.44639 24.1761 6.81092 24.9387 6.81092C25.7022 6.81092 26.4272 7.44126 26.4272 8.49124C26.4272 9.53391 25.6982 10.1758 24.9418 10.1715ZM24.9325 12.7607C27.2588 12.7607 29.1525 10.9388 29.1525 8.49124C29.1525 6.03002 27.2576 4.22168 24.9325 4.22168C22.6074 4.22168 20.7124 6.03002 20.7124 8.49124C20.7124 10.9394 22.6129 12.7607 24.9325 12.7607Z" fill="white" stroke="white" stroke-width="1.12966"/>
<path d="M37.1438 5.00901V4.4442H34.468V4.53648C34.0537 4.33934 33.5626 4.21537 33.0227 4.21537C30.8509 4.21537 28.9077 6.11163 28.9077 8.50349C28.9077 10.1053 29.7843 11.4767 31.0189 12.204L30.9693 12.2246L29.553 12.8121L29.0312 13.0286L29.2478 13.5503C29.7168 14.6803 30.9631 16.0881 33.0536 16.0881C34.1159 16.0881 35.1525 15.7759 35.926 15.0267C36.7041 14.2729 37.1438 13.1466 37.1438 11.6639V5.00901ZM31.7069 12.5283C32.125 12.6793 32.5687 12.7606 33.0227 12.7606C33.5354 12.7606 34.0061 12.6501 34.4091 12.4676C34.3432 12.7606 34.2271 12.9729 34.0889 13.1214C33.8771 13.349 33.5465 13.4988 33.0536 13.4988C32.3669 13.4988 31.9088 13.0111 31.7069 12.5283ZM33.1649 6.81081C33.8971 6.81081 34.5793 7.44967 34.5793 8.50966C34.5793 9.54864 33.9048 10.1776 33.1649 10.1776C32.3796 10.1776 31.664 9.5195 31.664 8.50966C31.664 7.47384 32.3866 6.81081 33.1649 6.81081ZM39.9948 1.08167V0.516846H37.2385V12.5442H39.9948V1.08167Z" fill="white" stroke="white" stroke-width="1.12966"/>
<path d="M46.1505 9.24577L45.6849 8.93534L45.3702 9.39812C45.0266 9.90338 44.6094 10.1838 44.0127 10.1838C43.6884 10.1838 43.4407 10.1099 43.2448 9.9863C43.192 9.95309 43.1406 9.91468 43.0907 9.87062L47.3833 8.09141L47.8973 7.87829L47.692 7.36113L47.5271 6.94587C47.186 6.0365 46.1038 4.22778 43.8272 4.22778C41.5805 4.22778 39.8174 6.0078 39.8174 8.49734C39.8174 10.8677 41.5662 12.7669 44.0065 12.7669C45.9678 12.7669 47.1026 11.5626 47.5674 10.8724L47.8845 10.4017L47.4123 10.0869L46.1505 9.24577ZM44.2175 6.82808L42.7601 7.4317C43.0459 6.99919 43.5212 6.78614 43.8829 6.78614C44.0073 6.78614 44.119 6.80172 44.2175 6.82808Z" fill="white" stroke="white" stroke-width="1.12966"/>
</g>
</svg>
