<svg width="76" height="33" viewBox="0 0 76 33" fill="none" xmlns="http://www.w3.org/2000/svg">
<path d="M69.398 11.9951C66.5424 11.9951 60.849 15.0141 59.5039 15.7447L37.711 0.173035L16.5276 15.7241C15.2249 15.0141 9.48324 11.9636 6.60208 11.9636C3.23349 11.9636 0.49707 13.9231 0.49707 16.3385C0.49707 18.7539 3.23054 20.7134 6.60208 20.7134C9.43007 20.7134 15.0762 17.7476 16.4646 16.9716L37.711 32.567L59.5039 16.9953C60.849 17.7367 66.5375 20.7449 69.398 20.7449C72.7666 20.7449 75.503 18.7854 75.503 16.37C75.503 13.9546 72.7656 11.9951 69.398 11.9951ZM6.58041 19.6539C3.79476 19.6539 1.53787 18.1602 1.53787 16.3385C1.53787 14.5168 3.79377 13.0231 6.58041 13.0231C8.8688 13.0231 13.4869 15.3213 15.4041 16.3385C13.4869 17.3448 8.86782 19.6539 6.58041 19.6539ZM17.4591 16.4124L17.597 16.3385H17.5251L37.711 1.50826L58.4769 16.3385H58.3784L58.4769 16.3917L37.711 31.2219L17.4591 16.4124ZM69.3655 19.6854C67.0771 19.6854 62.4589 17.3872 60.5516 16.37C62.458 15.3637 67.0771 13.0546 69.3655 13.0546C72.1413 13.0546 74.408 14.5484 74.408 16.37C74.408 18.1917 72.1728 19.6854 69.397 19.6854H69.3655Z" fill="white"/>
</svg>
