<svg width="298" height="285" viewBox="0 0 298 285" fill="none" xmlns="http://www.w3.org/2000/svg">
<path d="M276.79 174.675L277.249 168.988L275.709 160.555L271.926 156.695L265.454 155.276L271.211 150.349L273.524 147.45L273.764 144.532C273.764 144.532 270.963 138.002 270.874 137.006C270.867 136.111 270.963 135.217 271.161 134.344L271.524 131.532L270.384 129.54L267.236 127.138L259.576 120.197L256.449 118.504L240.915 116.373L243.056 113.234L250.736 109.495L256.998 107.877L259.503 105.219L259.717 102.877L257.437 99.2051L254.271 95.9506L239.915 89.2288L232.942 86.4822L227.331 85.4573L218.701 88.1645L211.551 90.8706L207.554 93.0332L203.821 95.7412L200.139 99.7804L198.818 101.828L200.912 104.264L201.316 108.147L192.707 115.244L190.182 119.145L189.138 123.224L189.327 126.335L190.227 130.858L189.234 133.315L184.378 140.48L184.813 143.153L189.398 146.806L184.32 158.185L182.954 164.543L180.512 162.034L177.244 160.393L169.777 160.931L170.626 164.377L169.888 170.129L170.552 174.907L173.888 180.884L175.682 190.715L177.937 194.783L181.01 195.448L184.534 193.825L180.898 197.838L180.105 201.958L184.203 210.186L188.068 215.385L191.535 218.039L201.721 224.297L208.697 225.939L211.53 225.087L214.147 222.53L214.614 218.265L210.42 203.267L210.494 195.691L213.625 199.109L217.63 207.806L218.776 215.881L221.547 221.705L226.023 224.228L229.349 225.301L234.199 224.81L238.752 224.899L245.4 222.422L250.807 220.011L252.145 218.995L253.466 217.439L249.573 216.308L245.975 214.201L240.86 209.769L235.906 207.797L240.534 207.056L245.506 205.992L250.64 207.549L256.798 206.317L261.112 203.105L264.064 199.266L267.253 192.368L272.681 188.146L274.523 185.428L275.521 178.837L276.79 174.675Z" fill="white"/>
<path d="M276.842 174.298L277.289 168.605L275.752 160.181L271.969 156.321L265.531 154.889L271.188 149.924L273.499 147.016L273.747 144.095C273.747 144.095 270.946 137.565 270.848 136.572C270.842 135.672 270.94 134.775 271.14 133.899L271.495 131.089L270.358 129.106L267.218 126.701L259.55 119.763L256.423 118.07L240.978 115.925L243.114 112.798L250.802 109.056L257.056 107.44L259.522 104.778L259.733 102.427L257.456 98.7641L254.281 95.5127L239.958 88.8545L232.985 86.1079L227.375 85.083L218.744 87.7902L211.594 90.4963L207.606 92.6559L203.873 95.3639L200.17 99.3727L198.827 101.466L200.922 103.902L201.314 107.78L192.705 114.876L190.181 118.777L189.136 122.857L189.325 125.968L190.229 130.499L189.236 132.955L184.371 140.124L184.806 142.797L189.394 146.458L184.36 157.803L182.916 164.207L180.516 161.655L177.248 160.014L169.781 160.552L170.608 163.94L169.871 169.692L170.55 174.54L173.886 180.517L175.684 190.356L177.943 194.412L181.019 195.086L184.54 193.455L180.908 197.476L180.106 201.599L184.202 209.819L188.075 215.015L191.533 217.672L201.739 223.932L208.715 225.573L211.553 224.71L214.165 222.165L214.64 217.896L210.446 202.899L210.52 195.323L213.651 198.741L217.656 207.437L218.796 215.468L221.567 221.292L226.037 223.827L229.363 224.9L234.214 224.408L238.771 224.486L245.438 222.059L250.836 219.651L252.172 218.627L253.493 217.07L249.591 215.943L245.996 213.844L240.882 209.412L235.935 207.437L240.563 206.696L245.533 205.624L250.659 207.184L256.819 205.961L261.121 202.743L264.085 198.909L267.285 191.988L272.724 187.772L274.516 185.072L275.514 178.48L276.842 174.298Z" fill="white"/>
<path d="M210.799 194.74C208.405 200.557 211.69 207.561 213.135 213.216C214.285 216.893 216.276 220.859 212.315 224.263C208.221 228.103 208.493 224.418 204.102 222.025C196.585 217.655 189.373 219.515 184.959 211.459C179.696 203.117 177.234 199.983 184.492 193.841C174.311 200.377 176.534 186.989 173.829 180.905C171.406 175.389 169.989 176.811 169.83 170.15C169.678 166.336 172.078 164.764 169.105 160.977C175.408 161.674 176.531 157.812 182.927 164.6" stroke="#B8C3C9" stroke-width="0.62073" stroke-miterlimit="10"/>
<path d="M189.31 146.876C183.347 142.082 182.501 141.805 187.295 135.842C192.778 129.128 188.694 130.171 189.105 123.236C189.639 113.039 205.193 105.915 213.4 103.909C218.066 102.626 223.976 101.853 228.394 104.114C238.863 109.542 234.987 109.264 232.978 115.204C229.777 123.107 224.806 126.898 221.487 131.522" stroke="#B8C3C9" stroke-width="0.62073" stroke-miterlimit="10"/>
<path d="M224.981 126.239C233.164 118.543 231.461 113.501 254.923 118.097C260.194 119.123 262.163 123.313 266.544 127.079C267.535 128.35 270.226 128.768 271.08 130.467C272.507 133.298 270.24 134.434 270.818 136.979C272.554 143.255 276.523 145.5 271.211 150.35C268.808 151.913 266.883 155.492 263.488 155.784" stroke="#B8C3C9" stroke-width="0.62073" stroke-miterlimit="10"/>
<path d="M261.662 156.316C271.869 152.365 283.312 161.714 271.954 182.182C270.023 185.717 267.437 183.591 265.316 185.722C262.35 188.981 266.744 190.864 266.18 193.957C265.489 198.927 257.22 212.118 245.453 205.974" stroke="#B8C3C9" stroke-width="0.62073" stroke-miterlimit="10"/>
<path d="M235.156 207.551C240.242 207.861 245.038 214.609 248.966 216.095C252.895 217.581 254.352 218.343 248.696 221.185C245.728 223.039 241.479 221.632 238.084 221.924C229.736 222.943 226.48 225.638 221.082 217.732C217.676 212.366 215.701 198.41 210.453 195.735" stroke="#B8C3C9" stroke-width="0.62073" stroke-miterlimit="10"/>
<path d="M189.014 146.295C195.52 142.313 192.811 137.646 196.764 132.82C199.162 129.843 209.912 125.854 213.876 126.686C227.909 129.902 222.028 142.083 212.5 151.968C210.793 151.4 209.716 154.689 207.522 157.375C206.334 165.026 207.707 164.961 202.776 169.483C197.753 174.142 196.719 183.955 185.701 181.944C184.283 174.911 181.987 170.34 183.102 162.696C184.36 156.038 186.895 152.634 189.289 146.818" stroke="#B8C3C9" stroke-width="0.62073" stroke-miterlimit="10"/>
<path d="M202.966 171.197C201.46 190.033 218.077 206.831 236.769 207.342C242.854 207.467 262.408 202.596 259.95 192.837C259.086 188.31 249.721 188.067 247.189 188.63C244.222 189.058 245.494 188.067 241.955 190.195C239.555 191.767 238.562 193.317 236.871 195.593C233.346 200.557 235.762 201.829 228.697 203.287C225.016 204.428 221.954 202.91 218.232 201.189" stroke="#B8C3C9" stroke-width="0.62073" stroke-miterlimit="10"/>
<path d="M243.176 189.477C230.245 196.703 221.578 193.374 215.621 188.569" stroke="#B8C3C9" stroke-width="0.62073" stroke-miterlimit="10"/>
<path d="M222.499 139.175C238.598 134.768 249.731 147.051 249.412 151.904C249.252 154.058 247.398 152.751 245.615 153.815C244.484 154.491 244.358 156.273 244.292 158.241C244.202 161.029 245.981 162.288 245.83 164.438C245.631 167.341 245.936 166.286 246.055 169.282C246.124 172.428 244.532 173.913 243.325 176.457C242.118 179 242.46 181.858 240.593 184.17C238.391 186.934 231.572 190.369 227.93 189.722C225.679 189.343 223.179 189.63 221.201 188.397C219.054 187.14 217.278 186.484 215.407 184.844" stroke="#B8C3C9" stroke-width="0.62073" stroke-miterlimit="10"/>
<path d="M253.667 165.228C255.185 166.808 255.102 168.084 254.671 169.958C254.505 170.462 254.35 172.057 254.071 172.328C252.918 173.05 252.358 171.951 251.535 172.232C249.611 173.064 249.892 173.887 248.094 172.654C247.215 172.03 247.045 171.148 246.176 170.521" stroke="#B8C3C9" stroke-width="0.62073" stroke-miterlimit="10"/>
<path d="M248.413 164.923C249.129 164.973 249.802 166.304 249.419 167.454C247.821 167.29 248.472 165.864 248.141 164.644C248.527 164.589 248.654 164.911 248.866 164.795" stroke="#B8C3C9" stroke-width="0.62073" stroke-miterlimit="10"/>
<path d="M249.965 166.906C251.179 168.219 249.856 168.889 250.184 170.1C250.512 171.312 252.248 170.585 251.736 172.083" stroke="#B8C3C9" stroke-width="0.62073" stroke-miterlimit="10"/>
<path d="M229.478 189.489C232.178 189.648 236.096 191.129 239.126 190.847C244.027 190.441 244.627 188.071 248.089 185.915C251.55 183.758 253.974 182.536 256.057 179.004C257.323 176.854 259.456 172.605 257.628 170.354C254.713 172.51 255.16 176.15 250.255 174.34C248.918 173.883 248.265 172.035 246.222 172.647C245.389 172.95 245.045 173.792 244.249 174.743" stroke="#B8C3C9" stroke-width="0.62073" stroke-miterlimit="10"/>
<path d="M260.716 149.904C262.154 151.108 261.859 153.046 262.054 154.749C262.336 157.779 263.504 160.364 263.014 163.506C262.394 166.987 260.836 174.528 257.294 176.308" stroke="#B8C3C9" stroke-width="0.62073" stroke-miterlimit="10"/>
<path d="M257.671 170.188C258.658 169.245 259.381 168.061 259.77 166.753C260.1 165.35 259.13 160.767 258.477 161.099" stroke="#B8C3C9" stroke-width="0.62073" stroke-miterlimit="10"/>
<path d="M248.998 159.841C249.507 161.731 248.302 163.736 248.141 164.644C248.142 165.059 247.15 165.42 246.989 165.913C246.829 166.405 248.101 168.396 247.893 169.019C247.688 170.037 247.318 170.757 246.161 170.093" stroke="#B8C3C9" stroke-width="0.62073" stroke-miterlimit="10"/>
<path d="M249.856 167.228C249.701 167.349 249.562 167.489 249.441 167.644C249.287 167.89 249.073 168.094 248.818 168.234C248.564 168.375 248.278 168.448 247.987 168.446" stroke="#B8C3C9" stroke-width="0.62073" stroke-miterlimit="10"/>
<path d="M244.473 157.703C247.478 156.081 247.704 162.897 250.42 157.605C251.322 155.701 251.861 151.192 249.077 150.413" stroke="#B8C3C9" stroke-width="0.62073" stroke-miterlimit="10"/>
<path d="M252.026 156.209C252.302 155.93 251.585 155.879 252.086 156.037C254.15 156.522 252.257 158.296 252.223 159.006C251.902 161.105 251.582 164.298 248.661 164.257" stroke="#B8C3C9" stroke-width="0.62073" stroke-miterlimit="10"/>
<path d="M254.369 165.784C254.929 164.864 255.16 163.782 255.026 162.714" stroke="#B8C3C9" stroke-width="0.62073" stroke-miterlimit="10"/>
<path d="M252.154 161.381C253.623 160.233 255.585 166.558 251.503 166.129C251.561 164.862 250.739 164.029 249.514 164.371" stroke="#B8C3C9" stroke-width="0.62073" stroke-miterlimit="10"/>
<path d="M250.793 219.997C249.147 221.285 246.336 221.78 244.567 222.829C241.839 224.192 238.821 224.87 235.773 224.803C233.205 224.568 230.034 225.552 227.897 225.254C224.845 224.648 224.948 221.845 223.057 220.202" stroke="#B8C3C9" stroke-width="0.62073" stroke-miterlimit="10"/>
<path d="M226 224.218C222.911 222.794 220.479 220.248 219.2 217.096C217.782 213.979 216.187 201.82 213.606 199.135" stroke="#B8C3C9" stroke-width="0.62073" stroke-miterlimit="10"/>
<path d="M190.544 217.598C196.427 220.175 202.569 227.301 209.815 225.796" stroke="#B8C3C9" stroke-width="0.62073" stroke-miterlimit="10"/>
<path d="M185.101 192.817C185.453 188.961 188.373 182.906 192.552 182.178" stroke="#B8C3C9" stroke-width="0.62073" stroke-miterlimit="10"/>
<path d="M190.233 127.374C191.863 119.666 197.703 112.142 205.395 110.097C211.998 108.638 226.992 99.2263 232.514 106.54" stroke="#B8C3C9" stroke-width="0.62073" stroke-miterlimit="10"/>
<path d="M271.716 156.639C279.152 162.756 277.577 169.605 275.779 176.978C274.957 180.372 275.528 184.222 273.698 186.974C271.504 189.915 267.523 190.75 266.18 193.957" stroke="#B8C3C9" stroke-width="0.62073" stroke-miterlimit="10"/>
<path d="M206.464 166.913C207.019 168.929 207.29 171.775 209.319 173.046C211.612 174.42 213.991 172.761 215.833 174.582C219.414 177.601 215.748 177.614 214.932 180.091C214.041 182.831 214.387 183.573 214.944 186.503C215.776 188.607 220.574 199.043 219.111 200.699C217.647 202.355 210.392 194.766 209.193 192.843" stroke="#B8C3C9" stroke-width="0.62073" stroke-miterlimit="10"/>
<path d="M249.506 150.634C251.156 151.175 252.665 150.758 253.092 153.641C254.326 154.051 256.256 155.151 257.202 154.977C257.478 155.527 257.068 156.762 257.068 156.762C265.021 147.941 253.717 137.806 245.865 132.463C240.361 128.361 231.572 131.409 231.572 131.409C228.144 133.477 224.081 138.467 221.756 141.361" stroke="#B8C3C9" stroke-width="0.62073" stroke-miterlimit="10"/>
<path d="M225.569 155.468C217.853 151.095 207.686 154.144 208.026 164.307" stroke="#B8C3C9" stroke-width="0.62073" stroke-miterlimit="10"/>
<path d="M213.762 163.474C208.542 162.665 204.938 165.157 204.984 170.651" stroke="#B8C3C9" stroke-width="0.62073" stroke-miterlimit="10"/>
<path d="M203.381 186.597C198.72 189.634 196.402 199.858 190.28 200.019" stroke="#B8C3C9" stroke-width="0.62073" stroke-miterlimit="10"/>
<path d="M204.759 187.974C202.576 191.826 201.759 197.049 202.055 201.726" stroke="#B8C3C9" stroke-width="0.62073" stroke-miterlimit="10"/>
<path d="M206.592 140.586C200.677 139.087 194.773 140.339 190.381 145.306" stroke="#B8C3C9" stroke-width="0.62073" stroke-miterlimit="10"/>
<path d="M195.383 162.057C191.671 159.454 188.074 153.695 189.164 149.015" stroke="#B8C3C9" stroke-width="0.62073" stroke-miterlimit="10"/>
<path d="M196.31 150.915C193.286 150.383 190.948 147.771 190.69 145.845" stroke="#B8C3C9" stroke-width="0.62073" stroke-miterlimit="10"/>
<path d="M190.437 163.168C189.595 158.756 188.059 153.654 189.164 149.014" stroke="#B8C3C9" stroke-width="0.62073" stroke-miterlimit="10"/>
<path d="M232.673 126.761C229.754 127.186 227.075 128.616 225.098 130.805C223.121 132.994 221.97 135.805 221.845 138.752" stroke="#B8C3C9" stroke-width="0.62073" stroke-miterlimit="10"/>
<path d="M216.962 113.333C218.348 117.452 219.193 123.222 215.351 126.536" stroke="#B8C3C9" stroke-width="0.62073" stroke-miterlimit="10"/>
<path d="M183.187 175.423C182.247 174.433 181.078 173.691 179.782 173.262C178.487 172.833 177.106 172.731 175.761 172.964" stroke="#B8C3C9" stroke-width="0.62073" stroke-miterlimit="10"/>
<path d="M240.915 116.373C242.27 109.491 259.256 109.933 259.785 104.154C260.162 97.411 244.769 91.416 240.648 91.4248C236.93 91.5797 235.545 92.9613 231.024 91.4549C227.313 90.2295 223.734 88.588 220.024 88.7399C212.19 88.8922 202.31 95.2439 198.751 101.852C201.088 103.087 201.515 105.97 201.249 108.171" stroke="#B8C3C9" stroke-width="0.62073" stroke-miterlimit="10"/>
<path d="M258.847 100.824C257.311 95.7215 246.078 91.7981 240.849 89.6155C236.446 87.7076 231.764 85.2407 226.545 85.8097C221.326 86.3787 217.62 89.2655 212.809 89.9692" stroke="#B8C3C9" stroke-width="0.62073" stroke-miterlimit="10"/>
<path d="M164.348 50.5252L155.502 48.8285L142.02 49.7719L135.314 55.0438L131.992 64.8687L125.195 55.1127L121.042 50.9623L116.569 50.0802C116.569 50.0802 105.827 53.3388 104.266 53.3029C102.865 53.1566 101.486 52.8478 100.156 52.3829L95.8075 51.3235L92.5002 52.7632L88.1771 57.2715L75.9419 68.0945L72.7045 72.7078L66.6711 96.5515L62.1296 92.6557L57.6052 79.9398L56.1567 69.8413L52.4204 65.5392L48.7814 64.7971L42.6214 67.6808L36.9989 72.0675L24.0138 93.4306L18.3924 103.913L15.8645 112.524L18.5756 126.532L21.5655 138.221L24.263 144.855L27.8522 151.164L33.4945 157.669L36.5469 160.144L40.7326 157.281L46.8859 157.334L56.5149 172.071L62.1847 176.707L68.3924 179.062L73.3185 179.374L80.5474 178.752L84.2383 180.778L94.627 189.642L98.9892 189.441L105.523 182.892L122.405 192.639L132.112 195.976L127.756 199.355L124.711 204.162L124.285 215.953L129.697 215.266L138.627 217.479L146.227 217.28L156.177 213.092L171.907 211.972L178.668 209.134L180.242 204.409L178.307 198.602L183.987 205.028L190.307 206.993L203.932 202.034L212.753 196.87L217.549 191.897L229.121 177.021L232.906 166.368L232.057 161.779L228.516 157.236L221.897 155.748L197.653 159.712L185.813 158.293L191.677 153.819L205.988 149.063L218.8 148.665L228.42 145.333L233.164 138.766L235.431 133.741L235.465 126.057L236.39 118.926L233.669 108.054L230.885 99.1873L229.518 96.9103L227.329 94.6025L224.879 100.524L220.955 105.793L213.116 113.034L209.209 120.448L208.799 113.048L207.99 105.067L211.332 97.3202L210.464 87.4163L206.18 80.1051L200.68 74.7936L190.391 68.5638L184.718 59.3045L180.794 56.0146L170.635 53.3046L164.348 50.5252Z" fill="white"/>
<path d="M163.758 50.3815L154.934 48.6673L141.455 49.6191L134.757 54.8879L131.43 64.7242L124.63 54.9879L120.477 50.8374L116.006 49.9357C116.006 49.9357 105.236 53.167 103.721 53.1523C102.319 53.0007 100.939 52.6892 99.6079 52.2239L95.1915 51.1608L91.8759 52.6035L87.5649 57.1451L75.3547 67.959L72.1006 72.5784L66.0673 96.4221L61.5258 92.5263L57.0241 79.821L55.5839 69.7195L51.8476 65.4174L48.2003 64.6783L42.0486 67.559L36.3868 71.9411L23.3691 93.3444L17.8492 103.846L15.2683 112.467L18.0036 126.438L21.0019 138.124L23.691 144.761L27.2802 151.07L32.9308 157.572L35.9733 159.994L40.159 157.131L46.3154 157.193L55.9444 171.929L61.6225 176.562L67.8303 178.918L72.7647 179.226L80.0103 178.599L83.6815 180.622L94.0732 189.494L98.39 189.273L104.929 182.712L121.769 192.474L131.546 195.795L127.19 199.174L124.112 203.993L123.685 215.784L129.153 215.068L137.995 217.323L145.594 217.124L155.553 212.933L171.28 211.832L178.042 208.994L179.624 204.266L177.689 198.459L183.36 204.888L189.734 206.843L203.35 201.887L212.18 196.72L216.975 191.747L228.547 176.872L232.332 166.218L231.48 161.621L227.939 157.078L221.332 155.595L197.088 159.559L185.244 158.132L191.131 153.772L205.443 149.016L218.241 148.632L227.853 145.304L232.605 138.733L234.864 133.712L234.898 126.027L235.83 118.893L233.127 107.94L230.281 99.0579L228.923 96.7779L226.72 94.4845L224.287 100.428L220.343 105.638L212.503 112.88L208.593 120.286L208.175 112.888L207.365 104.907L210.707 97.1325L209.847 87.2255L205.552 79.909L200.054 74.6059L189.766 68.3761L184.101 59.1137L180.177 55.8238L170.006 53.1843L163.758 50.3815Z" fill="white"/>
<path d="M184.315 157.498C193.004 162.263 204.557 158.303 213.688 157.047C219.648 155.896 226.199 153.437 230.886 160.223C236.186 167.316 230.465 166.247 225.943 172.724C217.781 183.744 219.442 195.388 206.005 200.911C192.061 207.713 186.665 211.036 178.301 198.585C186.789 215.681 166.169 209.871 156.199 213.047C147.134 215.884 149.106 218.346 138.649 217.434C132.625 217.012 130.596 212.967 124.094 216.985C126.287 207.221 120.428 204.787 132.179 195.952" stroke="#D8C501" stroke-width="0.62073" stroke-miterlimit="10"/>
<path d="M105.511 182.859C96.9519 191.363 96.3644 192.652 87.8403 184.063C78.3529 174.305 79.2094 180.91 68.3925 179.062C52.5024 176.447 44.04 150.811 42.3239 137.592C41.1163 130.049 40.9499 120.672 45.3315 114.095C55.6516 98.5807 54.5458 104.721 63.5201 108.843C75.3619 115.244 80.432 123.703 87.1068 129.701" stroke="#D8C501" stroke-width="0.62073" stroke-miterlimit="10"/>
<path d="M79.3666 123.317C68.7627 109.143 60.5841 110.94 71.8118 74.9484C74.3398 66.8564 81.2273 64.5194 87.997 58.2808C90.1626 56.9453 91.2834 52.791 94.1105 51.7431C98.8018 50.0356 100.183 53.7513 104.283 53.297C114.34 51.6841 118.56 45.8546 125.206 55.1182C127.244 59.161 132.534 62.8315 132.393 68.1765" stroke="#D8C501" stroke-width="0.62073" stroke-miterlimit="10"/>
<path d="M132.888 71.0637C128.459 54.359 145.125 38.0541 175.24 59.4234C180.428 63.0743 176.703 66.7892 179.653 70.4339C184.259 75.6464 187.931 69.0913 192.714 70.5119C200.363 72.4461 219.646 87.7267 207.946 105.102" stroke="#D8C501" stroke-width="0.62073" stroke-miterlimit="10"/>
<path d="M208.636 121.544C209.942 113.595 221.375 107.282 224.431 101.367C227.487 95.4511 228.895 93.3059 232.38 102.673C234.757 107.649 231.811 114.072 231.683 119.45C231.799 132.732 235.491 138.287 222.132 145.376C213.122 149.788 190.945 150.433 185.794 158.215" stroke="#D8C501" stroke-width="0.62073" stroke-miterlimit="10"/>
<path d="M104.578 183.199C99.4546 172.286 91.7136 175.726 84.7976 168.703C80.5515 164.426 76.1529 146.871 78.1611 140.799C85.646 119.361 103.738 130.697 117.555 147.372C116.377 149.943 121.352 152.256 125.163 156.116C136.951 159.309 137.096 157.142 143.394 165.655C149.828 174.335 165.078 177.655 159.973 194.612C148.626 195.637 141.136 198.42 129.347 195.378C119.129 192.246 114.268 187.655 105.529 182.909" stroke="#D8C501" stroke-width="0.62073" stroke-miterlimit="10"/>
<path d="M146.03 165.714C175.308 171.355 204.531 148.196 208.612 119.014C209.864 109.49 205.638 78.0189 189.905 80.1403C182.655 80.7031 180.619 95.3066 181.07 99.3983C181.236 104.132 179.892 101.969 182.62 107.884C184.655 111.918 186.932 113.741 190.194 116.791C197.37 123.182 199.775 119.626 200.789 130.968C201.943 136.937 198.971 141.529 195.673 146.985" stroke="#D8C501" stroke-width="0.62073" stroke-miterlimit="10"/>
<path d="M181.694 105.805C190.768 127.34 184.041 140.358 175.473 148.864" stroke="#D8C501" stroke-width="0.62073" stroke-miterlimit="10"/>
<path d="M99.2132 129.465C95.1053 103.453 116.312 88.1373 123.862 89.4851C127.218 90.1508 124.841 92.7994 126.154 95.7847C127.022 97.677 129.791 98.1792 132.856 98.6397C137.21 99.2725 139.487 96.6884 142.828 97.3124C147.283 98.1445 145.786 97.4532 150.477 97.7935C155.362 98.252 157.466 100.997 161.235 103.315C165.248 105.761 169.553 105.609 172.862 108.944C176.809 112.867 181.006 124.164 179.352 129.758C178.362 133.233 178.379 137.171 176.133 140.074C173.79 143.23 172.458 145.894 169.542 148.541" stroke="#D8C501" stroke-width="0.62073" stroke-miterlimit="10"/>
<path d="M145.422 85.1483C148.182 83.0868 150.172 83.4195 153.029 84.399C153.776 84.7405 156.253 85.2731 156.637 85.7563C157.568 87.6918 155.704 88.3795 156.05 89.7446C157.012 92.905 158.359 92.613 156.149 95.2008C155.053 96.4679 153.623 96.5827 152.401 97.8672" stroke="#D8C501" stroke-width="0.62073" stroke-miterlimit="10"/>
<path d="M144.099 93.311C144.316 92.1942 146.496 91.3913 148.248 92.1878C147.716 94.6653 145.58 93.3856 143.627 93.6998C143.602 93.0861 144.126 92.9428 143.999 92.6208" stroke="#D8C501" stroke-width="0.62073" stroke-miterlimit="10"/>
<path d="M147.476 91.2326C149.761 89.5516 150.567 91.7401 152.531 91.4312C154.6 90.8669 153.652 88.3148 155.905 89.3445" stroke="#D8C501" stroke-width="0.62073" stroke-miterlimit="10"/>
<path d="M179.333 127.293C180.048 123.088 183.049 117.202 183.134 112.406C183.356 104.643 179.731 103.264 176.967 97.485C174.203 91.7061 172.711 87.7101 167.515 83.7789C164.368 81.4328 158.076 77.3435 154.224 79.8024C157.092 84.751 162.877 84.6743 159.188 92.0658C158.272 94.0601 155.223 94.783 155.829 98.0822C156.118 99.4208 157.417 100.137 158.779 101.547" stroke="#D8C501" stroke-width="0.62073" stroke-miterlimit="10"/>
<path d="M122.692 71.415C124.835 69.3703 127.818 70.1248 130.521 70.1604C135.325 70.2423 139.58 68.8637 144.418 70.179C149.762 71.7161 161.333 75.5068 163.501 81.3329" stroke="#D8C501" stroke-width="0.62073" stroke-miterlimit="10"/>
<path d="M153.961 79.7C152.656 77.986 150.925 76.6443 148.94 75.8089C146.779 75.0572 139.482 75.7503 139.879 76.8419" stroke="#D8C501" stroke-width="0.62073" stroke-miterlimit="10"/>
<path d="M136.229 91.5232C139.291 91.0412 142.23 93.2836 143.627 93.6999C144.274 93.7664 144.666 95.3883 145.413 95.7298C146.254 95.8863 149.496 94.4232 150.425 94.8495C152.012 95.3475 153.053 96.054 151.823 97.7567" stroke="#D8C501" stroke-width="0.62073" stroke-miterlimit="10"/>
<path d="M147.973 91.4575C148.13 91.7298 148.328 91.9761 148.56 92.1877C149.39 93.0178 149.457 93.2011 149.563 94.6064" stroke="#D8C501" stroke-width="0.62073" stroke-miterlimit="10"/>
<path d="M132.096 98.2367C130.077 93.2341 140.825 94.1158 132.979 88.8936C130.146 87.1505 123.17 85.5373 121.467 89.7243" stroke="#D8C501" stroke-width="0.62073" stroke-miterlimit="10"/>
<path d="M131.066 86.1269C130.652 85.6641 130.469 86.7687 130.786 86.0307C131.907 82.9143 134.36 86.1547 135.474 86.3627C138.762 87.2042 143.672 88.2482 143.102 92.8531" stroke="#D8C501" stroke-width="0.62073" stroke-miterlimit="10"/>
<path d="M146.496 84.1342C145.151 83.0926 143.492 82.5385 141.791 82.5627" stroke="#D8C501" stroke-width="0.62073" stroke-miterlimit="10"/>
<path d="M139.204 86.8358C137.651 84.3058 147.948 82.3413 146.486 88.6958C144.492 88.4025 143.029 89.5674 143.385 91.5045" stroke="#D8C501" stroke-width="0.62073" stroke-miterlimit="10"/>
<path d="M230.885 99.1874C232.614 101.993 232.908 106.482 234.237 109.433C235.9 113.958 236.441 118.818 235.816 123.598C234.991 127.579 235.987 132.728 235.143 136.035C233.666 140.716 229.283 140.056 226.372 142.738" stroke="#D8C501" stroke-width="0.62073" stroke-miterlimit="10"/>
<path d="M233.176 138.799C230.873 143.101 225.818 146.818 220.819 148.223C215.692 149.9 196.332 150.275 191.719 153.832" stroke="#D8C501" stroke-width="0.62073" stroke-miterlimit="10"/>
<path d="M216.62 193.235C221.641 184.472 233.937 175.995 232.831 164.451" stroke="#D8C501" stroke-width="0.62073" stroke-miterlimit="10"/>
<path d="M176.803 197.451C170.828 196.228 161.853 190.625 161.41 183.859" stroke="#D8C501" stroke-width="0.62073" stroke-miterlimit="10"/>
<path d="M75.0848 178.004C63.2923 174.124 52.5001 163.633 50.6433 151.22C49.4674 140.626 37.3602 115.477 49.7995 108.118" stroke="#D8C501" stroke-width="0.62073" stroke-miterlimit="10"/>
<path d="M135.168 55.3425C146.077 44.7661 156.59 48.395 167.78 52.5131C172.968 54.3995 179.085 54.1735 183.087 57.5201C187.349 61.4516 187.922 67.8207 192.717 70.5201" stroke="#D8C501" stroke-width="0.62073" stroke-miterlimit="10"/>
<path d="M139.917 159.446C143.174 158.931 147.683 158.979 150.004 156.049C152.555 152.686 150.367 148.669 153.548 146.105C158.896 141.017 158.278 146.762 162.017 148.477C166.173 150.381 167.387 149.93 172.066 149.538C175.499 148.6 192.705 142.904 195.048 145.477C197.39 148.049 184.228 158.115 181.008 159.665" stroke="#D8C501" stroke-width="0.62073" stroke-miterlimit="10"/>
<path d="M121.885 89.1101C123.026 86.6187 122.64 84.1831 127.233 84.0212C128.091 82.1519 130.145 79.3186 130.09 77.7913C131.006 77.4576 132.872 78.3071 132.872 78.3071C120.428 64.3125 102.556 80.2631 92.8306 91.6544C85.4198 99.5796 88.6704 113.929 88.6704 113.929C91.3017 119.577 98.4572 126.844 102.568 131.009" stroke="#D8C501" stroke-width="0.62073" stroke-miterlimit="10"/>
<path d="M125.299 127.501C117.086 138.823 120.145 155.319 136.105 156.597" stroke="#D8C501" stroke-width="0.62073" stroke-miterlimit="10"/>
<path d="M135.795 147.396C133.611 155.447 136.896 161.49 145.516 162.41" stroke="#D8C501" stroke-width="0.62073" stroke-miterlimit="10"/>
<path d="M170.243 167.707C174.194 175.554 189.823 180.954 189.006 190.584" stroke="#D8C501" stroke-width="0.62073" stroke-miterlimit="10"/>
<path d="M172.636 165.779C178.303 169.888 186.367 172.105 193.731 172.426" stroke="#D8C501" stroke-width="0.62073" stroke-miterlimit="10"/>
<path d="M98.6501 154.649C95.2693 163.665 96.21 173.146 103.224 180.879" stroke="#D8C501" stroke-width="0.62073" stroke-miterlimit="10"/>
<path d="M130.362 175.975C125.636 181.347 115.963 185.934 108.832 183.453" stroke="#D8C501" stroke-width="0.62073" stroke-miterlimit="10"/>
<path d="M113.062 172.571C111.688 177.223 107.198 180.443 104.129 180.54" stroke="#D8C501" stroke-width="0.62073" stroke-miterlimit="10"/>
<path d="M131.253 183.917C124.212 184.46 115.962 185.982 108.832 183.453" stroke="#D8C501" stroke-width="0.62073" stroke-miterlimit="10"/>
<path d="M81.5005 111.368C81.6595 116.02 83.4392 120.47 86.5319 123.948C89.6246 127.427 93.8358 129.716 98.4371 130.418" stroke="#D8C501" stroke-width="0.62073" stroke-miterlimit="10"/>
<path d="M57.7439 133.678C64.4384 132.186 73.6312 131.878 78.1689 138.512" stroke="#D8C501" stroke-width="0.62073" stroke-miterlimit="10"/>
<path d="M149.199 197.42C145.9 199.687 143.908 204.064 144.055 208.644" stroke="#D8C501" stroke-width="0.62073" stroke-miterlimit="10"/>
<path d="M66.671 96.5515C56.1279 93.2264 59.7786 66.6734 50.8133 64.8313C40.3176 63.0366 28.1944 86.1715 27.4985 92.6341C27.0684 98.4526 29.0055 100.871 25.8574 107.726C23.3075 113.373 20.0998 118.664 19.6954 124.501C18.5816 136.816 26.8194 153.408 36.5635 160.138C38.9012 156.683 43.4945 156.521 46.8661 157.332" stroke="#D8C501" stroke-width="0.62073" stroke-miterlimit="10"/>
<path d="M45.427 65.8481C37.1733 67.3612 29.0492 84.2939 24.7157 92.1182C20.9538 98.6871 16.2693 105.573 16.2551 113.882C16.2409 122.192 20.13 128.495 20.3838 136.141" stroke="#D8C501" stroke-width="0.62073" stroke-miterlimit="10"/>
</svg>
