<svg width="215" height="36" viewBox="0 0 215 36" fill="none" xmlns="http://www.w3.org/2000/svg">
<path d="M8.26886e-05 10.7242C8.26886e-05 10.7242 58.2217 3.84278 82.4285 5.05731C106.635 6.27185 131.723 9.91487 149.108 14.7719C166.493 19.6288 183.438 27.3201 214.027 19.2236V35.3287H-0.000488281L8.26886e-05 10.7242Z" fill="url(#paint0_linear_1_2369)"/>
<path d="M8.26886e-05 0.330989C8.26886e-05 0.330989 32.1327 -0.0736683 56.4148 12.8793C80.6969 25.8322 137.428 24.213 147.803 19.356C158.178 14.499 187.979 2.35483 214.027 15.3077V35.3298H-0.000488281L8.26886e-05 0.330989Z" fill="url(#paint1_linear_1_2369)"/>
<defs>
<linearGradient id="paint0_linear_1_2369" x1="107.013" y1="4.91357" x2="107.013" y2="35.3287" gradientUnits="userSpaceOnUse">
<stop stop-color="white" stop-opacity="0.396"/>
<stop offset="1" stop-color="#F7F7F0"/>
</linearGradient>
<linearGradient id="paint1_linear_1_2369" x1="107.013" y1="0.32959" x2="107.013" y2="35.3298" gradientUnits="userSpaceOnUse">
<stop stop-color="white" stop-opacity="0.396"/>
<stop offset="1" stop-color="#F7F7F0"/>
</linearGradient>
</defs>
</svg>
