<svg width="8" height="12" viewBox="0 0 8 12" fill="none" xmlns="http://www.w3.org/2000/svg">
<path d="M7.57909 1.00907V7.66394C7.57909 10.4039 5.96481 11.5233 4.05374 11.5233C2.2539 11.5233 1.17779 10.3173 0.769529 9.33387L2.18589 8.7463C2.43946 9.3524 3.05799 10.0637 4.05374 10.0637C5.27829 10.0637 6.03289 9.30299 6.03289 7.88663V7.35472H5.97717C5.61229 7.8062 4.90723 8.19586 4.02279 8.19586C2.16737 8.19586 0.472656 6.58166 0.472656 4.50354C0.472656 2.41308 2.17354 0.780273 4.02279 0.780273C4.90723 0.780273 5.61229 1.1761 5.97717 1.60899H6.03289V1.00907H7.57909ZM6.1442 4.50972C6.1442 3.20474 5.27211 2.24604 4.16505 2.24604C3.03938 2.24604 2.09929 3.19849 2.09929 4.50972C2.09929 5.80234 3.03938 6.74244 4.16505 6.74244C5.27211 6.74244 6.1442 5.80234 6.1442 4.50972Z" fill="#4285F4"/>
</svg>
