<svg width="8" height="9" viewBox="0 0 8 9" fill="none" xmlns="http://www.w3.org/2000/svg">
<path d="M5.83735 5.71584L7.09911 6.55698C6.69085 7.16315 5.70752 8.20221 4.00663 8.20221C1.89764 8.20221 0.382324 6.57558 0.382324 4.49747C0.382324 2.29562 1.91617 0.792725 3.82732 0.792725C5.75075 0.792725 6.69085 2.32039 7.00015 3.14919L7.16711 3.56972L2.21304 5.62313C2.59035 6.36531 3.1841 6.74872 4.01281 6.74872C4.8416 6.74872 5.41682 6.33436 5.83735 5.71584ZM1.94712 4.37991L5.26221 3.00692C5.07665 2.54301 4.53238 2.22144 3.88298 2.22144C3.05418 2.22144 1.90382 2.95127 1.94712 4.37991Z" fill="#E94235"/>
</svg>
