<svg width="12" height="13" viewBox="0 0 12 13" fill="none" xmlns="http://www.w3.org/2000/svg">
<path d="M5.82974 12.2019C2.65688 12.2019 -0.00878906 9.61668 -0.00878906 6.44385C-0.00878906 3.27105 2.65688 0.685791 5.82974 0.685791C7.5862 0.685791 8.83552 1.37231 9.77562 2.2753L8.66856 3.38238C7.99438 2.75153 7.07906 2.25674 5.82974 2.25674C3.51039 2.25674 1.69823 4.12456 1.69823 6.44385C1.69823 8.76319 3.51039 10.631 5.82974 10.631C7.33263 10.631 8.18612 10.0249 8.73656 9.48067C9.18805 9.02911 9.47875 8.38588 9.59006 7.50151H5.82974V5.92436H11.1239C11.1796 6.20264 11.2105 6.54281 11.2105 6.90777C11.2105 8.08901 10.8889 9.54867 9.84988 10.5877C8.83552 11.6391 7.54907 12.2019 5.82974 12.2019Z" fill="#4285F4"/>
</svg>
